<?xml version="1.0" encoding="UTF-8"?>
<!DOCTYPE svg PUBLIC "-//W3C//DTD SVG 1.1//EN" "http://www.w3.org/Graphics/SVG/1.1/DTD/svg11.dtd">
<svg xmlns="http://www.w3.org/2000/svg" version="1.1" width="437px" height="90px" style="shape-rendering:geometricPrecision; text-rendering:geometricPrecision; image-rendering:optimizeQuality; fill-rule:evenodd; clip-rule:evenodd" xmlns:xlink="http://www.w3.org/1999/xlink">
<g><path style="opacity:0.861" fill="#592acd" d="M 19.5,12.5 C 35.1702,12.3334 50.8369,12.5001 66.5,13C 73.3937,14.2262 78.227,18.0595 81,24.5C 81.6667,37.8333 81.6667,51.1667 81,64.5C 78.1008,71.4004 72.9341,75.2337 65.5,76C 49.9256,76.8238 34.4256,76.6571 19,75.5C 18.1791,54.4271 18.3458,33.4271 19.5,12.5 Z M 29.5,24.5 C 38.2498,24.0901 46.9164,24.5901 55.5,26C 61.992,31.7555 61.992,37.5888 55.5,43.5C 61.5289,47.4884 63.0289,52.8217 60,59.5C 58.786,61.0488 57.286,62.2155 55.5,63C 46.9164,64.4099 38.2498,64.9099 29.5,64.5C 29.5,51.1667 29.5,37.8333 29.5,24.5 Z"/></g>
<g><path style="opacity:0.744" fill="#582ace" d="M 405.5,12.5 C 408.167,12.5 410.833,12.5 413.5,12.5C 413.337,14.8568 413.503,17.1902 414,19.5C 416.333,18.1667 418.667,18.1667 421,19.5C 421.498,22.4816 421.665,25.4816 421.5,28.5C 419.5,28.5 417.5,28.5 415.5,28.5C 415.5,31.8333 415.5,35.1667 415.5,38.5C 410.833,38.5 406.167,38.5 401.5,38.5C 401.334,34.1539 401.501,29.8206 402,25.5C 405,24.1667 408,24.1667 411,25.5C 411.49,24.2068 411.657,22.8734 411.5,21.5C 409.5,21.5 407.5,21.5 405.5,21.5C 405.5,18.5 405.5,15.5 405.5,12.5 Z"/></g>
<g><path style="opacity:0.788" fill="#5929ce" d="M 228.5,44.5 C 228.5,43.8333 228.167,43.5 227.5,43.5C 227.5,42.8333 227.167,42.5 226.5,42.5C 226.5,41.8333 226.167,41.5 225.5,41.5C 225.5,41.1667 225.5,40.8333 225.5,40.5C 225.5,39.8333 225.167,39.5 224.5,39.5C 224.5,38.8333 224.167,38.5 223.5,38.5C 226.782,32.0283 231.115,26.195 236.5,21C 240.541,20.1735 244.541,20.3401 248.5,21.5C 242.052,29.4256 235.385,37.0922 228.5,44.5 Z"/></g>
<g><path style="opacity:0.852" fill="#592ace" d="M 91.5,23.5 C 103.838,23.3335 116.171,23.5001 128.5,24C 130.726,25.2273 132.226,27.0607 133,29.5C 133.799,34.0868 133.632,38.5868 132.5,43C 133,43.5 133.5,44 134,44.5C 134.667,50.1667 134.667,55.8333 134,61.5C 133.167,63.6667 131.667,65.1667 129.5,66C 116.838,66.4999 104.171,66.6666 91.5,66.5C 91.5,52.1667 91.5,37.8333 91.5,23.5 Z M 100.5,32.5 C 108.167,32.5 115.833,32.5 123.5,32.5C 123.5,34.8333 123.5,37.1667 123.5,39.5C 116.833,39.5 110.167,39.5 103.5,39.5C 103.5,42.8333 103.5,46.1667 103.5,49.5C 110.833,49.5 118.167,49.5 125.5,49.5C 125.5,52.1667 125.5,54.8333 125.5,57.5C 117.167,57.5 108.833,57.5 100.5,57.5C 100.5,49.1667 100.5,40.8333 100.5,32.5 Z"/></g>
<g><path style="opacity:0.749" fill="#5929cd" d="M 138.5,23.5 C 141.833,23.5 145.167,23.5 148.5,23.5C 148.5,37.8333 148.5,52.1667 148.5,66.5C 145.167,66.5 141.833,66.5 138.5,66.5C 138.5,52.1667 138.5,37.8333 138.5,23.5 Z"/></g>
<g><path style="opacity:0.816" fill="#592ace" d="M 157.5,23.5 C 168.838,23.3335 180.172,23.5001 191.5,24C 196.069,26.5414 197.569,30.3747 196,35.5C 193.281,36.4438 190.448,36.7771 187.5,36.5C 187.5,35.1667 187.5,33.8333 187.5,32.5C 179.167,32.5 170.833,32.5 162.5,32.5C 162.5,40.8333 162.5,49.1667 162.5,57.5C 170.833,57.5 179.167,57.5 187.5,57.5C 187.5,55.1667 187.5,52.8333 187.5,50.5C 184.167,50.5 180.833,50.5 177.5,50.5C 177.5,47.5 177.5,44.5 177.5,41.5C 183.833,41.5 190.167,41.5 196.5,41.5C 196.666,48.175 196.5,54.8417 196,61.5C 195.535,62.9308 194.701,64.0975 193.5,65C 181.596,66.6245 169.596,66.9579 157.5,66C 155.19,64.3626 153.69,62.196 153,59.5C 152.333,49.5 152.333,39.5 153,29.5C 154.332,27.34 155.832,25.34 157.5,23.5 Z"/></g>
<g><path style="opacity:0.818" fill="#2a2a2a" d="M 223.5,38.5 C 224.167,38.5 224.5,38.8333 224.5,39.5C 225.167,39.5 225.5,39.8333 225.5,40.5C 225.5,40.8333 225.5,41.1667 225.5,41.5C 226.167,41.5 226.5,41.8333 226.5,42.5C 227.167,42.5 227.5,42.8333 227.5,43.5C 228.167,43.5 228.5,43.8333 228.5,44.5C 233.919,51.6526 239.585,58.6526 245.5,65.5C 241.5,66.8333 237.5,66.8333 233.5,65.5C 230.137,60.791 226.304,56.4577 222,52.5C 218.167,57 214.333,61.5 210.5,66C 206.789,66.8253 203.122,66.6586 199.5,65.5C 204.601,58.2292 210.268,51.3958 216.5,45C 210.644,38.7783 205.144,32.2783 200,25.5C 199.251,24.365 199.417,23.365 200.5,22.5C 203.777,23.2537 207.11,23.7537 210.5,24C 214.699,29.028 219.032,33.8613 223.5,38.5 Z"/></g>
<g><path style="opacity:0.794" fill="#2a2a2a" d="M 339.5,24.5 C 342.5,24.5 345.5,24.5 348.5,24.5C 348.337,26.8568 348.503,29.1902 349,31.5C 351.041,30.5769 353.208,30.2436 355.5,30.5C 355.5,33.8333 355.5,37.1667 355.5,40.5C 353.167,40.5 350.833,40.5 348.5,40.5C 348.334,46.5092 348.501,52.5092 349,58.5C 351.719,59.4438 354.552,59.7771 357.5,59.5C 357.5,62.8333 357.5,66.1667 357.5,69.5C 350.702,70.7371 345.202,68.7371 341,63.5C 339.568,55.9458 339.068,48.2792 339.5,40.5C 337.5,40.5 335.5,40.5 333.5,40.5C 333.5,37.1667 333.5,33.8333 333.5,30.5C 335.467,30.2606 337.301,30.5939 339,31.5C 339.497,29.1902 339.663,26.8568 339.5,24.5 Z"/></g>
<g><path style="opacity:0.769" fill="#292a2a" d="M 248.5,29.5 C 259.936,29.0441 271.269,29.5441 282.5,31C 284.487,32.3189 285.654,34.1523 286,36.5C 286.913,45.5764 286.58,54.5764 285,63.5C 283.786,65.0488 282.286,66.2155 280.5,67C 273.833,67.6667 267.167,67.6667 260.5,67C 259.398,64.5991 259.231,62.0991 260,59.5C 265.741,58.5251 271.575,58.1918 277.5,58.5C 277.5,51.8333 277.5,45.1667 277.5,38.5C 270.833,38.5 264.167,38.5 257.5,38.5C 257.5,48.1667 257.5,57.8333 257.5,67.5C 254.5,67.5 251.5,67.5 248.5,67.5C 248.5,54.8333 248.5,42.1667 248.5,29.5 Z"/></g>
<g><path style="opacity:0.805" fill="#2a2b2b" d="M 290.5,30.5 C 299.839,30.3335 309.173,30.5002 318.5,31C 323.783,31.6154 327.283,34.4487 329,39.5C 329.5,48.8274 329.666,58.1607 329.5,67.5C 319.494,67.6665 309.494,67.4998 299.5,67C 287.792,62.7559 285.459,55.4225 292.5,45C 293.833,44.3333 295.167,43.6667 296.5,43C 303.826,42.5003 311.159,42.3337 318.5,42.5C 318.777,45.4475 318.444,48.2809 317.5,51C 311.141,51.1694 304.807,51.6694 298.5,52.5C 297.167,53.8333 297.167,55.1667 298.5,56.5C 305.803,57.4973 313.137,57.8306 320.5,57.5C 320.807,51.9066 320.473,46.4066 319.5,41C 309.506,40.5002 299.506,40.3335 289.5,40.5C 289.253,37.0613 289.586,33.728 290.5,30.5 Z"/></g>
<g><path style="opacity:0.81" fill="#2a2b2b" d="M 361.5,30.5 C 371.172,30.3335 380.839,30.5002 390.5,31C 394.843,32.0095 398.01,34.5095 400,38.5C 400.5,48.1609 400.666,57.8276 400.5,67.5C 390.494,67.6665 380.494,67.4998 370.5,67C 360.663,63.4773 357.83,56.9773 362,47.5C 363.167,46.3333 364.333,45.1667 365.5,44C 373.389,42.5648 381.389,42.0648 389.5,42.5C 389.5,45.5 389.5,48.5 389.5,51.5C 383.158,51.3338 376.825,51.5005 370.5,52C 369.446,53.3876 369.28,54.8876 370,56.5C 377.079,57.4799 384.245,57.8132 391.5,57.5C 391.807,51.9066 391.473,46.4066 390.5,41C 380.839,40.5002 371.172,40.3335 361.5,40.5C 361.5,37.1667 361.5,33.8333 361.5,30.5 Z"/></g>
<g><path style="opacity:0.681" fill="#5929cd" d="M 38.5,31.5 C 41.8499,31.335 45.1832,31.5017 48.5,32C 51.1667,34.6667 51.1667,37.3333 48.5,40C 45.1832,40.4983 41.8499,40.665 38.5,40.5C 38.5,37.5 38.5,34.5 38.5,31.5 Z"/></g>
<g><path style="opacity:0.705" fill="#5929cd" d="M 38.5,47.5 C 41.8499,47.335 45.1832,47.5017 48.5,48C 51.9166,50.321 52.2499,52.9876 49.5,56C 45.8484,56.4986 42.1817,56.6653 38.5,56.5C 38.5,53.5 38.5,50.5 38.5,47.5 Z"/></g>
</svg>
