<?xml version="1.0" encoding="UTF-8"?>
<!DOCTYPE svg PUBLIC "-//W3C//DTD SVG 1.1//EN" "http://www.w3.org/Graphics/SVG/1.1/DTD/svg11.dtd">
<svg xmlns="http://www.w3.org/2000/svg" version="1.1" width="242px" height="73px" style="shape-rendering:geometricPrecision; text-rendering:geometricPrecision; image-rendering:optimizeQuality; fill-rule:evenodd; clip-rule:evenodd" xmlns:xlink="http://www.w3.org/1999/xlink">
<g><path style="opacity:0.913" fill="#8fc74b" d="M 29.5,-0.5 C 31.8333,-0.5 34.1667,-0.5 36.5,-0.5C 38.5191,0.933421 40.6857,2.26675 43,3.5C 43.8295,8.86433 43.6628,14.1977 42.5,19.5C 38.7925,15.9946 34.4591,14.8279 29.5,16C 24.3489,18.9956 19.3489,22.1623 14.5,25.5C 9.83333,22.8333 5.16667,20.1667 0.5,17.5C 1.03118,15.3763 2.36451,13.8763 4.5,13C 12.8951,8.4715 21.2285,3.9715 29.5,-0.5 Z"/></g>
<g><path style="opacity:0.924" fill="#8ec74c" d="M 65.5,17.5 C 61.0074,19.579 56.674,21.9123 52.5,24.5C 52.334,19.1563 52.5006,13.8229 53,8.5C 56.4212,10.4608 59.9212,12.2941 63.5,14C 64.8228,14.8159 65.4894,15.9826 65.5,17.5 Z"/></g>
<g><path style="opacity:0.927" fill="#367bbe" d="M 78.5,8.5 C 87.8393,8.33355 97.1726,8.50021 106.5,9C 110,9.83333 112.167,12 113,15.5C 113.667,25.5 113.667,35.5 113,45.5C 112.215,47.286 111.049,48.786 109.5,50C 99.271,51.4512 88.9377,51.9512 78.5,51.5C 78.5,37.1667 78.5,22.8333 78.5,8.5 Z M 88.5,18.5 C 93.8333,18.5 99.1667,18.5 104.5,18.5C 104.666,26.1739 104.5,33.8406 104,41.5C 98.9283,42.4714 93.7616,42.8047 88.5,42.5C 88.5,34.5 88.5,26.5 88.5,18.5 Z"/></g>
<g><path style="opacity:0.916" fill="#367bbe" d="M 170.5,8.5 C 177.841,8.33368 185.174,8.50034 192.5,9C 197.333,9.83333 200.167,12.6667 201,17.5C 201.891,27.2278 201.557,36.8945 200,46.5C 198.833,48.3333 197.333,49.8333 195.5,51C 186.5,51.6667 177.5,51.6667 168.5,51C 166.714,50.2155 165.214,49.0488 164,47.5C 162.381,36.9319 162.048,26.2653 163,15.5C 164.767,12.228 167.267,9.89471 170.5,8.5 Z M 172.5,18.5 C 178.833,18.5 185.167,18.5 191.5,18.5C 191.5,26.5 191.5,34.5 191.5,42.5C 184.91,42.811 178.41,42.4777 172,41.5C 171.202,33.754 171.369,26.0873 172.5,18.5 Z"/></g>
<g><path style="opacity:0.975" fill="#367bbe" d="M 241.5,46.5 C 241.5,48.1667 241.5,49.8333 241.5,51.5C 230.5,51.5 219.5,51.5 208.5,51.5C 208.5,37.1667 208.5,22.8333 208.5,8.5C 211.5,8.5 214.5,8.5 217.5,8.5C 217.5,19.8333 217.5,31.1667 217.5,42.5C 224.175,42.3337 230.842,42.5004 237.5,43C 239.35,43.6897 240.684,44.8564 241.5,46.5 Z"/></g>
<g><path style="opacity:0.92" fill="#367bbe" d="M 119.5,9.5 C 132.167,9.5 144.833,9.5 157.5,9.5C 157.5,12.5 157.5,15.5 157.5,18.5C 152.5,18.5 147.5,18.5 142.5,18.5C 142.5,29.5 142.5,40.5 142.5,51.5C 139.167,51.5 135.833,51.5 132.5,51.5C 132.5,40.5 132.5,29.5 132.5,18.5C 128.167,18.5 123.833,18.5 119.5,18.5C 119.5,15.5 119.5,12.5 119.5,9.5 Z"/></g>
<g><path style="opacity:0.957" fill="#367bbe" d="M -0.5,17.5 C -0.166667,17.5 0.166667,17.5 0.5,17.5C 5.16667,20.1667 9.83333,22.8333 14.5,25.5C 13.0034,32.5469 13.1701,39.5469 15,46.5C 20.5971,50.9406 26.7638,54.2739 33.5,56.5C 33.5,61.8333 33.5,67.1667 33.5,72.5C 31.8333,72.5 30.1667,72.5 28.5,72.5C 21.3917,68.1075 14.0584,63.9409 6.5,60C 3.64238,58.3059 1.30904,56.1393 -0.5,53.5C -0.5,41.5 -0.5,29.5 -0.5,17.5 Z"/></g>
<g><path style="opacity:0.95" fill="#01b0ef" d="M 65.5,17.5 C 66.1662,23.3238 66.4995,29.3238 66.5,35.5C 66.6294,42.2689 66.1294,48.9356 65,55.5C 56.1553,61.8314 46.9886,67.4981 37.5,72.5C 36.1667,72.5 34.8333,72.5 33.5,72.5C 33.5,67.1667 33.5,61.8333 33.5,56.5C 39.6856,53.8227 45.5189,50.4893 51,46.5C 52.3905,39.2542 52.8905,31.9209 52.5,24.5C 56.674,21.9123 61.0074,19.579 65.5,17.5 Z"/></g>
<g><path style="opacity:0.891" fill="#8ec74d" d="M 42.5,30.5 C 39.4502,32.6916 36.1168,34.3583 32.5,35.5C 29.3388,34.0869 26.3388,32.4203 23.5,30.5C 26.0265,27.6443 29.1932,25.6443 33,24.5C 36.8068,25.6443 39.9735,27.6443 42.5,30.5 Z"/></g>
<g><path style="opacity:0.881" fill="#367cbd" d="M 23.5,30.5 C 26.3388,32.4203 29.3388,34.0869 32.5,35.5C 33.4227,39.0641 33.756,42.7307 33.5,46.5C 23.545,45.2513 20.2117,39.918 23.5,30.5 Z"/></g>
<g><path style="opacity:0.889" fill="#06b0ed" d="M 42.5,30.5 C 45.7034,39.4331 42.7034,44.7665 33.5,46.5C 33.756,42.7307 33.4227,39.0641 32.5,35.5C 36.1168,34.3583 39.4502,32.6916 42.5,30.5 Z"/></g>
<g><path style="opacity:0.651" fill="#848788" d="M 78.5,57.5 C 81.0115,57.838 83.3448,57.838 85.5,57.5C 86.2508,58.376 86.7508,59.376 87,60.5C 88.3561,59.6198 89.8561,59.2865 91.5,59.5C 92.8917,67.6337 90.3917,69.3003 84,64.5C 82.3005,65.4061 80.4672,65.7394 78.5,65.5C 78.5,62.8333 78.5,60.1667 78.5,57.5 Z M 80.5,59.5 C 82.332,60.1405 82.6653,61.1405 81.5,62.5C 80.6143,61.675 80.281,60.675 80.5,59.5 Z"/></g>
<g><path style="opacity:0.627" fill="#848788" d="M 92.5,57.5 C 94.8897,57.8551 97.223,58.5217 99.5,59.5C 101.044,59.2104 102.377,58.5437 103.5,57.5C 104.273,59.813 104.94,62.1463 105.5,64.5C 101.456,65.1328 97.4557,65.4661 93.5,65.5C 92.52,62.9135 92.1866,60.2469 92.5,57.5 Z"/></g>
<g><path style="opacity:0.625" fill="#848788" d="M 107.5,57.5 C 111.02,57.3955 114.186,58.3955 117,60.5C 119.036,59.898 120.87,58.898 122.5,57.5C 125.489,59.0394 128.656,60.0394 132,60.5C 133.667,59.1667 135.333,59.1667 137,60.5C 138,56.5 139,56.5 140,60.5C 144.586,59.6193 149.086,59.286 153.5,59.5C 154.957,64.8375 152.791,67.5042 147,67.5C 144.898,66.9618 144.065,65.9618 144.5,64.5C 141.652,66.1498 139.152,65.8164 137,63.5C 136.612,64.428 135.945,65.0946 135,65.5C 131.668,65.2496 128.168,65.2496 124.5,65.5C 124.167,60.1667 123.833,60.1667 123.5,65.5C 120.569,64.9943 117.735,64.9943 115,65.5C 113.739,65.2409 112.739,64.5742 112,63.5C 111.29,64.9733 110.124,65.6399 108.5,65.5C 108.599,62.7628 108.265,60.0961 107.5,57.5 Z"/></g>
<g><path style="opacity:0.625" fill="#848788" d="M 157.5,57.5 C 162.119,58.9884 166.952,59.655 172,59.5C 175.693,59.4162 179.193,58.7496 182.5,57.5C 186.5,60.1667 190.5,60.1667 194.5,57.5C 195.192,58.0253 195.692,58.6919 196,59.5C 197.418,56.999 198.418,57.3323 199,60.5C 201.022,59.0091 202.688,59.3424 204,61.5C 208.442,58.4049 210.276,59.7383 209.5,65.5C 207.234,65.8588 205.401,65.1922 204,63.5C 203.261,64.5742 202.261,65.2409 201,65.5C 194.177,65.0936 187.01,65.0936 179.5,65.5C 179.167,60.1667 178.833,60.1667 178.5,65.5C 174.946,65.1497 171.612,65.8163 168.5,67.5C 167.012,65.8507 166.012,63.8507 165.5,61.5C 164.833,62.8333 164.167,64.1667 163.5,65.5C 161.657,65.2448 159.657,65.0781 157.5,65C 156.221,62.5024 156.221,60.0024 157.5,57.5 Z M 158.5,59.5 C 160.332,60.1405 160.665,61.1405 159.5,62.5C 158.614,61.675 158.281,60.675 158.5,59.5 Z"/></g>
<g><path style="opacity:0.624" fill="#848788" d="M 241.5,59.5 C 241.5,60.1667 241.5,60.8333 241.5,61.5C 239.824,62.1834 239.157,63.5168 239.5,65.5C 230.388,65.0558 221.055,65.0558 211.5,65.5C 211.187,62.7531 211.52,60.0865 212.5,57.5C 213.452,59.0453 213.785,60.712 213.5,62.5C 214.5,62.5 215.5,62.5 216.5,62.5C 216.5,61.5 216.5,60.5 216.5,59.5C 221.412,60.0257 226.078,59.3591 230.5,57.5C 233.899,59.3122 237.566,59.9789 241.5,59.5 Z"/></g>
</svg>
