<?xml version="1.0" encoding="UTF-8"?>
<!DOCTYPE svg PUBLIC "-//W3C//DTD SVG 1.1//EN" "http://www.w3.org/Graphics/SVG/1.1/DTD/svg11.dtd">
<svg xmlns="http://www.w3.org/2000/svg" version="1.1" width="1088px" height="390px" style="shape-rendering:geometricPrecision; text-rendering:geometricPrecision; image-rendering:optimizeQuality; fill-rule:evenodd; clip-rule:evenodd" xmlns:xlink="http://www.w3.org/1999/xlink">
<g><path style="opacity:0.982" fill="#e14111" d="M 712.5,-0.5 C 719.833,-0.5 727.167,-0.5 734.5,-0.5C 743.995,1.74612 752.662,5.91278 760.5,12C 795.972,48.4723 831.805,84.639 868,120.5C 884.801,144.749 884.468,168.749 867,192.5C 813.14,245.36 759.64,298.527 706.5,352C 702.694,355.158 698.36,356.492 693.5,356C 683.821,345.655 674.154,335.321 664.5,325C 668.864,314.293 675.864,305.626 685.5,299C 650.361,262.861 614.861,227.028 579,191.5C 561.437,167.757 561.104,143.757 578,119.5C 614.194,82.9721 650.694,46.8054 687.5,11C 695.171,5.49458 703.504,1.66125 712.5,-0.5 Z M 718.5,63.5 C 728.082,62.9145 736.749,65.4145 744.5,71C 765,91.5 785.5,112 806,132.5C 816.935,147.256 817.268,162.256 807,177.5C 786.138,198.695 764.972,219.529 743.5,240C 728.97,249.833 714.637,249.5 700.5,239C 678.273,217.442 656.773,195.275 636,172.5C 629.552,159.445 630.218,146.779 638,134.5C 658.833,113.667 679.667,92.8333 700.5,72C 705.99,67.902 711.99,65.0686 718.5,63.5 Z"/></g>
<g><path style="opacity:0.899" fill="#74685e" d="M 929.5,53.5 C 931.582,53.472 933.416,54.1387 935,55.5C 935.667,71.1667 935.667,86.8333 935,102.5C 932.619,103.435 930.119,103.768 927.5,103.5C 926.87,86.5946 927.537,69.9279 929.5,53.5 Z"/></g>
<g><path style="opacity:0.835" fill="#74685e" d="M 900.5,72.5 C 903.85,72.335 907.183,72.5017 910.5,73C 913.381,74.2506 915.214,76.4173 916,79.5C 916.169,86.8559 916.669,94.1892 917.5,101.5C 919.071,100.691 920.738,100.357 922.5,100.5C 922.5,102.167 922.5,103.833 922.5,105.5C 917.891,106.026 913.557,105.359 909.5,103.5C 903.324,107.641 897.491,107.307 892,102.5C 888.968,93.8342 892.134,89.0009 901.5,88C 904.146,87.5026 906.813,87.3359 909.5,87.5C 911.016,81.2085 908.683,78.0418 902.5,78C 899.735,79.1294 897.235,80.6294 895,82.5C 892.681,81.5915 892.014,79.9248 893,77.5C 895.479,75.6859 897.979,74.0192 900.5,72.5 Z M 902.5,92.5 C 904.833,92.5 907.167,92.5 909.5,92.5C 910.057,99.7279 906.724,102.561 899.5,101C 897.675,99.5341 897.175,97.7008 898,95.5C 899.652,94.6006 901.152,93.6006 902.5,92.5 Z"/></g>
<g><path style="opacity:0.865" fill="#74685e" d="M 947.5,73.5 C 949.124,73.3601 950.29,74.0267 951,75.5C 952.037,80.649 953.537,85.649 955.5,90.5C 958.257,85.318 960.757,79.9846 963,74.5C 964.868,73.3281 966.702,73.4947 968.5,75C 971.404,80.6441 973.904,86.4774 976,92.5C 978.912,86.7699 981.246,80.7699 983,74.5C 985.081,73.6669 987.248,73.6669 989.5,74.5C 986.974,85.0779 983.641,95.4112 979.5,105.5C 977.591,106.348 975.591,106.682 973.5,106.5C 971.305,99.7525 968.805,93.0859 966,86.5C 962.905,92.3571 960.072,98.3571 957.5,104.5C 955.591,105.348 953.591,105.682 951.5,105.5C 948.693,95.2729 946.36,84.9395 944.5,74.5C 945.791,74.7373 946.791,74.404 947.5,73.5 Z"/></g>
<g><path style="opacity:0.852" fill="#74685e" d="M 1003.5,73.5 C 1006.85,73.335 1010.18,73.5017 1013.5,74C 1015.29,74.7845 1016.79,75.9512 1018,77.5C 1019.44,85.3888 1019.94,93.3888 1019.5,101.5C 1021.6,101.201 1023.6,101.534 1025.5,102.5C 1026.83,103.5 1026.83,104.5 1025.5,105.5C 1021.01,106.951 1016.68,106.617 1012.5,104.5C 1008.03,106.468 1003.36,106.968 998.5,106C 992.843,102.042 992.177,97.3749 996.5,92C 1001.8,89.1319 1007.47,87.9652 1013.5,88.5C 1013.61,84.6506 1012.28,81.4839 1009.5,79C 1008.17,78.3333 1006.83,78.3333 1005.5,79C 1002.73,80.1294 1000.23,81.6294 998,83.5C 994.995,82.114 994.662,80.114 997,77.5C 999.314,76.2668 1001.48,74.9334 1003.5,73.5 Z M 1005.5,93.5 C 1007.83,93.5 1010.17,93.5 1012.5,93.5C 1013.06,100.728 1009.72,103.561 1002.5,102C 1001.43,101.261 1000.76,100.261 1000.5,99C 1001.34,96.3304 1003.01,94.4971 1005.5,93.5 Z"/></g>
<g><path style="opacity:0.843" fill="#74685e" d="M 1070.5,73.5 C 1074.94,73.2101 1079.27,73.7101 1083.5,75C 1084.41,76.6995 1084.74,78.5328 1084.5,80.5C 1081.66,79.9421 1078.82,79.2755 1076,78.5C 1073.11,78.6951 1070.94,80.0284 1069.5,82.5C 1069.98,83.4776 1070.64,84.3109 1071.5,85C 1076.96,86.3688 1081.79,88.8688 1086,92.5C 1087.04,101.807 1082.7,106.474 1073,106.5C 1069.44,106.125 1066.11,105.125 1063,103.5C 1062.51,101.866 1062.34,100.199 1062.5,98.5C 1065.96,99.3083 1069.46,99.975 1073,100.5C 1078.77,100.774 1080.27,98.6068 1077.5,94C 1073.42,92.5285 1069.42,90.8618 1065.5,89C 1061,81.843 1062.66,76.6763 1070.5,73.5 Z"/></g>
<g><path style="opacity:0.852" fill="#74685e" d="M 1033.5,74.5 C 1036.93,81.2722 1040.1,88.2722 1043,95.5C 1046.46,88.7529 1050.29,82.2529 1054.5,76C 1057.31,75.4035 1059.31,76.4035 1060.5,79C 1052.8,92.8985 1044.97,106.732 1037,120.5C 1033.95,124.395 1031.45,124.061 1029.5,119.5C 1032.31,114.054 1034.97,108.554 1037.5,103C 1034.51,94.6787 1031.51,86.3453 1028.5,78C 1028.64,77.228 1028.98,76.5613 1029.5,76C 1031.06,75.79 1032.39,75.29 1033.5,74.5 Z"/></g>
<g><path style="opacity:0.985" fill="#e14111" d="M 1087.5,139.5 C 1087.5,208.5 1087.5,277.5 1087.5,346.5C 1073.25,351.589 1058.92,351.756 1044.5,347C 1043.87,346.25 1043.37,345.416 1043,344.5C 1042.67,336.5 1042.33,328.5 1042,320.5C 1006.03,286.865 970.364,252.865 935,218.5C 934.667,260.833 934.333,303.167 934,345.5C 932.2,347.317 930.034,348.484 927.5,349C 914.973,351.313 902.64,350.646 890.5,347C 889.335,277.904 889.169,208.737 890,139.5C 890.5,139 891,138.5 891.5,138C 898.013,136.061 904.679,135.227 911.5,135.5C 918.34,135.227 925.007,136.06 931.5,138C 932.333,138.833 933.167,139.667 934,140.5C 934.333,145.833 934.667,151.167 935,156.5C 970.667,190.5 1006.33,224.5 1042,258.5C 1042.33,219.167 1042.67,179.833 1043,140.5C 1044.21,138.951 1045.71,137.785 1047.5,137C 1057.45,135.502 1067.45,135.169 1077.5,136C 1081.21,136.29 1084.54,137.457 1087.5,139.5 Z"/></g>
<g><path style="opacity:0.942" fill="#e21611" d="M 182.5,353.5 C 172.341,347.247 162.674,340.247 153.5,332.5C 153.685,330.11 155.018,329.11 157.5,329.5C 164.047,332.271 170.713,334.771 177.5,337C 188.12,339.84 198.12,338.507 207.5,333C 213.236,326.01 212.57,319.677 205.5,314C 194.658,309.275 183.658,304.941 172.5,301C 155.172,291.373 151.339,277.873 161,260.5C 168.68,253.246 177.846,249.08 188.5,248C 201.075,246.653 213.075,248.653 224.5,254C 226.496,258.271 226.996,262.771 226,267.5C 225.326,268.578 224.326,269.245 223,269.5C 218.234,267.535 213.4,265.702 208.5,264C 199.212,261.476 190.212,262.142 181.5,266C 175.285,271.708 174.952,277.708 180.5,284C 194.951,290.059 209.284,296.392 223.5,303C 233.273,312.777 235.106,323.943 229,336.5C 222.67,345.088 214.17,350.255 203.5,352C 196.555,353.23 189.555,353.73 182.5,353.5 Z"/></g>
<g><path style="opacity:0.95" fill="#e21711" d="M 389.5,280.5 C 384.583,291.342 378.916,301.675 372.5,311.5C 357.315,318.433 341.815,319.099 326,313.5C 321.67,315.494 320.003,318.827 321,323.5C 322.109,325.815 323.943,327.315 326.5,328C 335.768,329.312 345.101,330.145 354.5,330.5C 349.463,335.539 344.129,340.206 338.5,344.5C 335.482,344.335 332.482,344.502 329.5,345C 325.305,348.03 321.639,351.53 318.5,355.5C 311.394,359.053 304.061,362.053 296.5,364.5C 297.021,353.629 302.021,345.463 311.5,340C 300.876,333.792 298.043,324.959 303,313.5C 305.257,309.988 307.757,306.654 310.5,303.5C 303.854,294.94 301.688,285.274 304,274.5C 310.534,257.464 323.034,248.63 341.5,248C 362.589,245.127 378.089,252.96 388,271.5C 389.149,274.393 389.649,277.393 389.5,280.5 Z M 339.5,262.5 C 345.577,262.196 351.577,262.696 357.5,264C 369.854,271.406 372.687,281.572 366,294.5C 358.643,301.837 349.809,304.337 339.5,302C 326.181,297.866 321.348,289.032 325,275.5C 327.907,268.971 332.741,264.638 339.5,262.5 Z"/></g>
<g><path style="opacity:0.956" fill="#e22811" d="M 562.5,248.5 C 562.08,255.526 561.413,262.526 560.5,269.5C 549.162,269.667 537.828,269.5 526.5,269C 525.874,268.25 525.374,267.416 525,266.5C 524.333,261.167 524.333,255.833 525,250.5C 525.5,250 526,249.5 526.5,249C 538.495,248.5 550.495,248.333 562.5,248.5 Z"/></g>
<g><path style="opacity:0.981" fill="#e22f11" d="M 562.5,248.5 C 574.167,248.5 585.833,248.5 597.5,248.5C 596.899,255.507 596.233,262.507 595.5,269.5C 592.5,269.5 589.5,269.5 586.5,269.5C 586.5,285.167 586.5,300.833 586.5,316.5C 582.191,328.419 577.858,340.419 573.5,352.5C 570.881,352.768 568.381,352.435 566,351.5C 565.5,324.169 565.333,296.835 565.5,269.5C 563.833,269.5 562.167,269.5 560.5,269.5C 561.413,262.526 562.08,255.526 562.5,248.5 Z"/></g>
<g><path style="opacity:0.945" fill="#e23311" d="M 597.5,248.5 C 606.839,248.334 616.173,248.5 625.5,249C 628.113,255.652 628.113,262.319 625.5,269C 615.506,269.5 605.506,269.666 595.5,269.5C 596.233,262.507 596.899,255.507 597.5,248.5 Z"/></g>
<g><path style="opacity:0.967" fill="#e21611" d="M 255.5,249.5 C 261.196,249.025 266.696,249.692 272,251.5C 272.667,284.5 272.667,317.5 272,350.5C 268.902,352.047 265.569,352.714 262,352.5C 258.466,352.365 254.966,352.031 251.5,351.5C 251.333,318.165 251.5,284.832 252,251.5C 253.302,250.915 254.469,250.249 255.5,249.5 Z"/></g>
<g><path style="opacity:0.978" fill="#e21c11" d="M 462.5,290.5 C 460.111,297.61 457.444,304.61 454.5,311.5C 447.833,311.5 441.167,311.5 434.5,311.5C 434.667,324.504 434.5,337.504 434,350.5C 433.25,351.126 432.416,351.626 431.5,352C 426.5,352.667 421.5,352.667 416.5,352C 415.584,351.626 414.75,351.126 414,350.5C 413.171,317.262 413.338,284.095 414.5,251C 421.099,248.869 427.599,249.035 434,251.5C 434.5,264.496 434.667,277.496 434.5,290.5C 443.833,290.5 453.167,290.5 462.5,290.5 Z"/></g>
<g><path style="opacity:0.95" fill="#e22211" d="M 513.5,298.5 C 509.798,308.762 505.964,319.096 502,329.5C 499.25,336.67 495.75,343.337 491.5,349.5C 491.5,336.833 491.5,324.167 491.5,311.5C 479.167,311.5 466.833,311.5 454.5,311.5C 457.444,304.61 460.111,297.61 462.5,290.5C 472.167,290.5 481.833,290.5 491.5,290.5C 491.186,277.45 491.519,264.45 492.5,251.5C 498.759,249.062 505.093,248.896 511.5,251C 512,251.5 512.5,252 513,252.5C 513.5,267.83 513.667,283.163 513.5,298.5 Z"/></g>
<g><path style="opacity:0.965" fill="#e22311" d="M 16.5,353.5 C 10.2693,341.708 4.60267,329.708 -0.5,317.5C -0.5,295.833 -0.5,274.167 -0.5,252.5C 6.31926,249.859 13.1526,249.859 20,252.5C 20.6667,285.5 20.6667,318.5 20,351.5C 18.8873,352.305 17.7206,352.972 16.5,353.5 Z"/></g>
<g><path style="opacity:0.963" fill="#e21b11" d="M 113.5,272.5 C 117.013,280.531 120.846,288.531 125,296.5C 127.699,301.256 130.866,305.589 134.5,309.5C 134.667,323.504 134.5,337.504 134,351.5C 130.902,353.047 127.569,353.714 124,353.5C 120.466,353.365 116.966,353.031 113.5,352.5C 113.666,348.154 113.499,343.821 113,339.5C 97,323.5 81,307.5 65,291.5C 64.5001,305.496 64.3334,319.496 64.5,333.5C 63.5416,333.047 62.7083,332.381 62,331.5C 54.4082,317.19 47.9082,302.523 42.5,287.5C 42.3335,276.162 42.5001,264.828 43,253.5C 44.1711,252.107 45.6711,251.273 47.5,251C 51.5,250.333 55.5,250.333 59.5,251C 61.3289,251.273 62.8289,252.107 64,253.5C 64.3333,256.167 64.6667,258.833 65,261.5C 81,277.5 97,293.5 113,309.5C 113.5,297.171 113.667,284.838 113.5,272.5 Z"/></g>
<g><path style="opacity:0.965" fill="#e11811" d="M 134.5,309.5 C 130.866,305.589 127.699,301.256 125,296.5C 120.846,288.531 117.013,280.531 113.5,272.5C 113.188,265.578 113.521,258.744 114.5,252C 121.099,249.875 127.599,250.042 134,252.5C 134.5,271.497 134.667,290.497 134.5,309.5 Z"/></g>
<g><path style="opacity:0.869" fill="#e11911" d="M 389.5,280.5 C 390.964,294.561 385.298,304.894 372.5,311.5C 378.916,301.675 384.583,291.342 389.5,280.5 Z"/></g>
<g><path style="opacity:0.92" fill="#e22011" d="M 42.5,287.5 C 47.9082,302.523 54.4082,317.19 62,331.5C 62.7083,332.381 63.5416,333.047 64.5,333.5C 64.8097,339.758 64.4764,345.924 63.5,352C 57.6123,353.576 51.6123,353.909 45.5,353C 44.3333,352.5 43.5,351.667 43,350.5C 42.5,329.503 42.3334,308.503 42.5,287.5 Z"/></g>
<g><path style="opacity:0.912" fill="#e22610" d="M 513.5,298.5 C 513.667,315.503 513.5,332.503 513,349.5C 512.228,350.849 511.061,351.682 509.5,352C 504.5,352.667 499.5,352.667 494.5,352C 493.058,351.623 492.058,350.79 491.5,349.5C 495.75,343.337 499.25,336.67 502,329.5C 505.964,319.096 509.798,308.762 513.5,298.5 Z"/></g>
<g><path style="opacity:0.917" fill="#e13210" d="M 586.5,316.5 C 586.832,328.186 586.499,339.852 585.5,351.5C 581.571,352.433 577.571,352.766 573.5,352.5C 577.858,340.419 582.191,328.419 586.5,316.5 Z"/></g>
<g><path style="opacity:0.973" fill="#e12610" d="M -0.5,317.5 C 4.60267,329.708 10.2693,341.708 16.5,353.5C 10.773,353.74 5.10637,353.407 -0.5,352.5C -0.5,340.833 -0.5,329.167 -0.5,317.5 Z"/></g>
<g><path style="opacity:0.949" fill="#e21b11" d="M 354.5,330.5 C 367.596,329.44 379.929,331.94 391.5,338C 404.679,351.185 404.679,364.518 391.5,378C 383.01,384.102 373.677,387.935 363.5,389.5C 352.167,389.5 340.833,389.5 329.5,389.5C 320.259,388.18 311.593,385.013 303.5,380C 299.146,375.782 296.813,370.615 296.5,364.5C 304.061,362.053 311.394,359.053 318.5,355.5C 316.066,364.132 319.066,369.965 327.5,373C 342.415,376.868 357.082,376.201 371.5,371C 380.788,364.69 381.788,357.356 374.5,349C 371.637,347.601 368.637,346.601 365.5,346C 356.495,345.5 347.495,345 338.5,344.5C 344.129,340.206 349.463,335.539 354.5,330.5 Z"/></g>
<g><path style="opacity:0.915" fill="#e11911" d="M 153.5,332.5 C 162.674,340.247 172.341,347.247 182.5,353.5C 173.832,352.666 165.499,350.499 157.5,347C 156,346.167 154.833,345 154,343.5C 153.501,339.848 153.335,336.182 153.5,332.5 Z"/></g>
</svg>
