<?xml version="1.0" encoding="UTF-8" standalone="no"?>
<!-- Created with Inkscape (http://www.inkscape.org/) -->

<svg
   version="1.1"
   id="svg1"
   width="2084.6521"
   height="576.263"
   viewBox="0 0 2084.652 576.263"
   sodipodi:docname="porest.svg"
   inkscape:version="1.4.2 (f4327f4, 2025-05-13)"
   xmlns:inkscape="http://www.inkscape.org/namespaces/inkscape"
   xmlns:sodipodi="http://sodipodi.sourceforge.net/DTD/sodipodi-0.dtd"
   xmlns="http://www.w3.org/2000/svg"
   xmlns:svg="http://www.w3.org/2000/svg">
  <defs
     id="defs1" />
  <sodipodi:namedview
     id="namedview1"
     pagecolor="#ffffff"
     bordercolor="#000000"
     borderopacity="0.25"
     inkscape:showpageshadow="2"
     inkscape:pageopacity="0.0"
     inkscape:pagecheckerboard="0"
     inkscape:deskcolor="#d1d1d1"
     inkscape:zoom="0.37"
     inkscape:cx="1210.8108"
     inkscape:cy="43.243243"
     inkscape:window-width="1920"
     inkscape:window-height="1010"
     inkscape:window-x="1913"
     inkscape:window-y="-6"
     inkscape:window-maximized="1"
     inkscape:current-layer="g1" />
  <g
     inkscape:groupmode="layer"
     inkscape:label="Image"
     id="g1"
     transform="translate(-175.3482,-131.60517)">
    <g
       id="g2"
       transform="translate(28.91891,20.216223)">
      <path
         style="fill:#d0d3cf"
         d="m 525.07886,666.99625 c -13.47183,-4.48478 -26.87114,-18.43241 -31.08819,-32.36039 -3.20592,-10.58843 -2.237,-24.6827 2.38106,-34.63586 4.3869,-9.45495 14.34165,-19.51779 23.62827,-23.88483 6.35901,-2.99033 9.10483,-3.4485 20.66667,-3.4485 11.56183,0 14.30766,0.45817 20.66666,3.4485 15.74925,7.40609 26.49051,23.29956 27.69699,40.98228 1.18557,17.37611 -5.69687,32.0775 -20.12053,42.97892 -11.68622,8.83246 -29.59335,11.65957 -43.83093,6.91988 z m -79.74553,-42.82448 v -41.16155 l -6.58143,-0.87306 c -10.79278,-1.43172 -26.3633,-10.11746 -35.85296,-19.99996 -26.11631,-27.19742 -26.10307,-67.75743 0.031,-94.97336 27.05724,-28.17731 71.08286,-28.17731 98.1401,0 26.13408,27.21593 26.14732,67.77594 0.031,94.97336 -9.2196,9.60126 -24.64851,18.36504 -35.08845,19.9306 L 460,582.96945 v 41.18194 41.18194 h -7.33333 -7.33334 z M 370,654.82688 c -10.7334,-2.83383 -20.36545,-10.5745 -25.5234,-20.51154 -3.44165,-6.63052 -4.01552,-22.31334 -1.09621,-29.95746 9.78465,-25.62074 43.6648,-32.48417 62.25354,-12.6113 8.2012,8.76774 10.88272,16.36108 10.09058,28.57375 -0.93915,14.47905 -7.5917,24.86484 -19.9328,31.11855 -6.9643,3.52908 -19.17972,5.1337 -25.79171,3.388 z M 261.33333,617.45053 v -26.54947 l -5.41656,-0.91512 c -9.21647,-1.55711 -22.92793,-9.34939 -30.45405,-17.30715 -26.7069,-28.23861 -18.29981,-73.70014 16.91909,-91.4904 8.69384,-4.39156 9.4121,-4.52172 24.95152,-4.52172 15.53943,0 16.25768,0.13016 24.95153,4.52172 35.10727,17.73388 43.62399,63.2539 17.08489,91.31508 -7.12597,7.53467 -18.19418,14.23041 -27.70308,16.75907 L 276,590.76945 V 617.38473 644 h -7.33333 -7.33334 z M 794.99503,457 l 0.3383,-173.66667 19.63263,-0.36878 19.63263,-0.36878 0.36737,21.00529 0.36737,21.00529 5.23329,-7.13294 c 11.29131,-15.39 33.19753,-29.34997 54.76671,-34.90066 15.65694,-4.02921 38.78253,-4.0587 54.66667,-0.0697 45.89542,11.52574 76.4644,47.47903 83.2614,97.92677 6.0331,44.77756 -7.3378,86.66993 -36.31404,113.77577 -22.09181,20.66581 -46.74242,29.39848 -79.51615,28.16923 -19.06973,-0.71525 -32.1949,-4.39894 -48.89239,-13.72207 -8.81825,-4.92372 -24.84562,-19.42036 -30.94118,-27.98607 l -2.84649,-4 -0.0422,77 -0.0422,77 H 814.66177 794.6568 Z m 136.3383,29.00273 c 30.15763,-6.30391 53.50327,-30.64026 60.12947,-62.68117 3.47527,-16.80463 2.14881,-41.90709 -2.99686,-56.71379 -11.50636,-33.1096 -38.14264,-52.15751 -73.13261,-52.29799 -37.47254,-0.15044 -67.26342,23.17952 -76.80954,60.1514 -3.65666,14.16215 -3.63017,38.27831 0.0578,52.60613 11.00389,42.75052 50.40602,67.78704 92.75177,58.93542 z m -582.80604,83.28064 c -4.74387,-1.44297 -10.95887,-7.17752 -12.68403,-11.7035 -1.75206,-4.59654 -1.42434,-13.07257 0.70221,-18.16213 C 338.9755,533.60185 348.28628,528 355.52277,528 c 7.60611,0 17.02471,6.24546 19.15557,12.70204 2.12533,6.43981 1.08794,16.66009 -2.1298,20.98264 -5.14573,6.91251 -15.50442,10.1893 -24.02125,7.59869 z m 223.78381,-6.17382 c -8.75452,-3.09816 -19.63508,-13.81482 -22.90826,-22.56316 -5.7881,-15.4701 -2.60474,-32.07458 8.35536,-43.58166 14.96658,-15.71351 42.85036,-15.71351 57.81694,0 10.96009,11.50708 14.14346,28.11156 8.35535,43.58166 -3.38712,9.05287 -14.1989,19.49195 -23.45401,22.64548 -7.74477,2.63891 -20.58197,2.60139 -28.16538,-0.0823 z m 620.7967,-33.72112 c -47.112,-8.60074 -80.8145,-39.89749 -93.3879,-86.72176 -2.668,-9.93578 -3.0346,-14.37509 -2.973,-36 0.06,-21.19713 0.4846,-26.16701 3.0162,-35.33334 6.0485,-21.90015 16.618,-39.69639 32.5783,-54.8534 18.2418,-17.32361 39.033,-26.85987 67.189,-30.8174 25.92,-3.64326 50.5955,0.40434 74.4696,12.21549 21.763,10.76673 39.3384,28.60505 50.04,50.78865 6.7377,13.96665 10.2682,27.18479 12.0913,45.26993 2.7198,26.98062 -1.1391,48.5784 -12.9435,72.44263 -6.0527,12.2363 -9.3988,17.11271 -17.9193,26.11403 -16.3807,17.30508 -31.6465,26.53127 -55.7504,33.69385 -9.5186,2.82848 -14.8744,3.5021 -30.8514,3.88025 -10.6334,0.25168 -22.1349,-0.0538 -25.5589,-0.67893 z m 42.2787,-36.74181 c 28.6123,-7.27311 49.4017,-28.25477 57.4487,-57.97995 3.3031,-12.20149 3.3405,-39.74292 0.073,-53.67144 -3.7441,-15.9594 -10.4384,-28.1059 -21.5684,-39.1351 C 1255.8953,326.55563 1239.2995,320 1216,320 c -21.7771,0 -38.9567,6.23708 -53.0054,19.24372 -9.9762,9.23619 -16.2331,19.15768 -21.086,33.43574 -4.4243,13.01724 -5.9405,38.38953 -3.2876,55.0174 5.3008,33.22462 25.3456,56.92473 54.8576,64.86125 9.6168,2.5862 31.897,2.63325 41.9079,0.0885 z m 425.3009,33.22541 c -26.4874,-5.91588 -49.6642,-19.60232 -64.668,-38.18789 -8.7582,-10.8491 -19.0146,-31.88767 -22.921,-47.01747 -2.7125,-10.50553 -3.0984,-15.155 -3.0984,-37.33334 0,-22.3067 0.3671,-26.6767 3.0725,-36.57755 13.3496,-48.85537 48.1248,-78.29229 99.5524,-84.2703 32.1109,-3.73262 63.3252,4.43083 87.7729,22.95515 12.2093,9.25116 21.1417,20.54711 28.9099,36.55937 9.5881,19.76346 11.232,27.71538 11.3009,54.66667 l 0.058,22.66666 -95,0.34222 -95,0.34222 0.02,3.65778 c 0.037,6.91149 4.0989,21.00348 8.8003,30.53278 8.4997,17.22799 27.1349,32.02156 46.7842,37.13955 9.8706,2.57097 32.2542,2.57097 42.1248,0 18.7412,-4.88145 32.7487,-15.71112 40.9715,-31.67628 l 4.6328,-8.99507 21.6552,-0.005 21.6552,-0.005 -3.3786,9 c -7.6987,20.50802 -20.877,37.28314 -38.3418,48.80679 -21.4409,14.14716 -35.4561,18.242 -64.9233,18.96878 -15.4134,0.38016 -23.0339,-0.019 -29.9793,-1.57021 z M 1760,382.21328 c 0,-6.26068 -4.6111,-23.57045 -8.1013,-30.4118 -7.8913,-15.46821 -27.8499,-29.75273 -47.232,-33.80421 -46.9052,-9.80468 -85.3907,16.46274 -93.2848,63.6694 l -0.8361,5 H 1685.2729 1760 Z m 395.3333,144.42404 c -16.8886,-3.38989 -31.6236,-13.48909 -37.8392,-25.93461 -7.3351,-14.68713 -7.2787,-13.97346 -7.8159,-99.03604 l -0.4988,-79 h -15.2564 -15.2563 V 306 289.33333 H 2094 h 15.3333 v -30 -30 H 2130 h 20.6667 v 30 30 H 2181.3333 2212 V 306 322.66667 h -30.6667 -30.6666 l 0.01,75 c 0,50.20516 0.4899,76.73775 1.4668,80.25639 1.7605,6.34122 7.6455,12.15578 14.2974,14.12633 2.6923,0.79757 14.045,1.79888 25.2284,2.22514 L 2212,495.04954 V 511.52477 528 l -25.6667,-0.14609 c -14.1166,-0.0804 -28.0666,-0.62781 -31,-1.21659 z M 1412,404.66667 V 285.33333 h 20 20 v 18.14668 18.14668 l 5.7552,-7.81787 c 11.5864,-15.73901 25.2005,-24.66404 45.4581,-29.80103 5.8006,-1.47095 14.0506,-2.67446 18.3333,-2.67446 h 7.7867 v 20.46295 20.46295 l -14.3982,0.82381 c -29.7708,1.70336 -46.1062,11.13463 -55.7424,32.18292 -6.5138,14.22793 -7.0958,22.24222 -7.1462,98.40071 L 1452,524 h -20 -20 z m 508,115.62428 c -19.1349,-5.13085 -31.7831,-11.98708 -43.481,-23.56991 -10.5622,-10.45827 -16.7217,-21.12728 -19.8449,-34.37402 -3.3301,-14.12396 -4.9198,-13.01369 18.6338,-13.01369 h 20.6413 L 1896.7297,453 c 3.5689,16.76497 18.1327,30.62891 36.66,34.89846 10.4643,2.41144 30.634,1.75263 40.6021,-1.3262 20.5701,-6.35346 31.23,-25.61017 23.2744,-42.04423 -4.9132,-10.14928 -16.4159,-16.68154 -42.1195,-23.91905 -46.4101,-13.06799 -59.6801,-18.27886 -73.396,-28.8212 -14.4995,-11.14461 -20.6017,-23.4266 -21.4828,-43.23885 -0.5048,-11.35032 -0.1428,-14.90378 2.2454,-22.04047 7.1453,-21.35217 27.2137,-37.93183 54.9581,-45.40408 15.5066,-4.1763 44.8257,-4.17371 60.2626,0.005 30.0693,8.14026 51.0142,28.63396 57.5338,56.29415 1.1144,4.72788 2.035,10.24615 2.0458,12.26282 l 0.02,3.66666 h -19.9054 -19.9055 l -1.5196,-7.32004 c -3.0778,-14.8255 -14.5876,-26.55341 -30.9318,-31.51779 -7.9368,-2.41073 -11.5756,-2.75064 -23.1319,-2.16084 -20.5304,1.04782 -33.6061,7.79349 -39.4113,20.33201 -3.5265,7.61681 -3.2123,16.10287 0.9019,24.35889 6.2363,12.51468 17.4504,17.87397 67.9036,32.45177 26.1167,7.54606 46.8404,18.46603 55.2893,29.13376 9.8843,12.47984 15.1545,32.9207 12.2643,47.56793 -3.9703,20.12145 -18.5071,38.41519 -37.8771,47.66601 -15.4466,7.37713 -23.3509,9.02169 -46.3431,9.64217 -19.41,0.52381 -21.518,0.32945 -34.6667,-3.19625 z M 341.65448,502.67387 c -6.30223,-3.84251 -9.64451,-10.08287 -9.64451,-18.0072 0,-12.38328 8.27342,-20.6567 20.6567,-20.6567 12.38328,0 20.6567,8.27342 20.6567,20.6567 0,4.30548 -0.9384,8.20575 -2.6495,11.01218 -3.84251,6.30223 -10.08287,9.64452 -18.0072,9.64452 -4.30549,0 -8.20576,-0.9384 -11.01219,-2.6495 z M 626.65174,484.1711 C 616.15189,480.81013 607.98847,475.65528 600.31233,467.53888 564.31977,429.48206 591.51989,366.69832 644,366.69832 c 45.35152,0 73.88004,47.6222 53.03901,88.53718 -3.78841,7.43739 -14.97355,18.82206 -22.92547,23.33446 -14.36873,8.15366 -32.72135,10.31952 -47.4618,5.60114 z m -97.6349,-54.49914 -0.35017,-47.66138 -7.65833,-0.9563 c -9.96264,-1.24404 -24.63846,-6.39486 -34.07638,-11.9599 -9.63681,-5.68232 -25.01069,-21.05619 -30.69301,-30.69301 -10.05829,-17.05815 -14.85851,-39.50744 -12.33192,-57.67294 3.02756,-21.76734 11.16571,-38.37831 26.13774,-53.35033 15.04463,-15.04463 31.82076,-23.22517 53.65453,-26.16354 18.18654,-2.44752 40.36069,2.32898 57.36874,12.35773 9.63681,5.68231 25.01069,21.05619 30.69301,30.693 20.32639,34.47214 16.25486,77.56599 -10.18401,107.78958 -11.6207,13.28421 -31.06986,24.3848 -49.24371,28.1058 L 544,381.86687 v 47.73323 47.73323 h -7.31649 -7.31649 z M 190,474.82503 C 178.1604,471.78038 169.34821,460.33404 169.34821,448 c 0,-14.93231 13.02946,-27.94143 27.98512,-27.94143 14.95566,0 27.98513,13.00912 27.98513,27.94143 0,9.44077 -6.55316,20.4787 -14.64121,24.66119 -4.56367,2.35997 -15.47451,3.50177 -20.67725,2.16384 z m 104.4751,-15.419 c -10.77229,-2.25238 -22.67275,-6.95051 -32.76009,-12.93321 -9.68818,-5.74597 -26.44186,-22.49965 -32.18783,-32.18783 -17.63899,-29.74083 -19.47308,-64.49815 -5.01046,-94.95166 12.297,-25.89341 36.80678,-46.17167 64.81661,-53.62628 11.8261,-3.14742 37.50724,-3.14742 49.33334,0 34.54804,9.1947 62.23853,36.89637 71.59739,71.62628 3.17886,11.79646 3.19387,37.44126 0.0289,49.33334 -9.12118,34.2718 -36.982,62.30112 -70.95962,71.38876 -11.09633,2.96783 -33.84755,3.65282 -44.85823,1.3506 z M 438,425.78449 c -10.41023,-5.48813 -15.33333,-13.79207 -15.33333,-25.8632 0,-9.97185 2.56867,-15.82167 9.58417,-21.82667 12.91705,-11.05652 31.20424,-8.70491 41.95928,5.39568 3.15032,4.13028 3.83768,6.48258 4.24369,14.52272 0.67759,13.4181 -3.86129,21.87421 -14.73403,27.45007 -6.21337,3.18641 -19.95942,3.35818 -25.71978,0.3214 z M 648.52895,353.45682 C 637.27731,348.34702 632,339.64247 632,326.19351 c 0,-7.45253 0.56011,-9.3872 4.33333,-14.9678 11.40648,-16.87015 35.92686,-16.87015 47.33334,0 3.77322,5.5806 4.33333,7.51527 4.33333,14.9678 0,4.70734 -0.84062,10.48954 -1.86805,12.84931 -4.25126,9.76427 -15.2838,16.89861 -26.13195,16.89861 -3.3,0 -8.46197,-1.11807 -11.47105,-2.48461 z M 203.26612,294.2319 c -12.71702,-4.89404 -18.47776,-13.91284 -17.69828,-27.70778 0.43121,-7.63119 1.14029,-9.83161 4.54879,-14.11563 11.54077,-14.50519 32.22597,-14.50519 43.76674,0 5.4294,6.82402 6.53485,20.26442 2.34259,28.48192 -6.04833,11.85571 -21.04594,17.92644 -32.95984,13.34149 z M 382,278.06198 c -8.7529,-5.32743 -12,-11.48203 -12,-22.74495 0,-8.35255 0.48124,-10.23946 3.85203,-15.10351 5.85536,-8.44929 11.62997,-11.42921 22.14797,-11.42921 10.518,0 16.29261,2.97992 22.14797,11.42921 3.37228,4.86621 3.85203,6.74929 3.85203,15.11981 0,8.27052 -0.49749,10.27921 -3.68499,14.87878 -5.38976,7.77742 -12.16699,11.12397 -22.49655,11.10861 -6.62579,-0.01 -9.65382,-0.72393 -13.81846,-3.25874 z M 271.15066,253.43669 c -7.93521,-3.60327 -15.81005,-11.22959 -19.74103,-19.11803 -4.71996,-9.47174 -4.84056,-25.2008 -0.26824,-34.98533 6.70993,-14.35887 18.54066,-22.15006 35.00754,-23.0544 9.66429,-0.53075 11.68849,-0.20224 19.01573,3.08602 9.2938,4.17081 16.42757,11.26487 20.58644,20.47184 3.95311,8.75146 3.85011,23.83214 -0.22235,32.55775 -3.88524,8.32445 -12.03057,16.36339 -20.64304,20.37339 -8.95242,4.16829 -25.31401,4.49264 -33.73505,0.66876 z m 134.24565,-33.58811 c -2.53203,-0.76905 -7.66773,-3.43207 -11.41267,-5.91782 -23.04122,-15.29389 -26.25649,-48.2666 -6.62132,-67.90177 17.35788,-17.35789 45.25081,-17.35789 62.60869,0 9.77968,9.77967 13.14678,18.82946 12.41187,33.35946 -0.87196,17.23944 -9.33638,30.32757 -24.48998,37.86766 -7.42126,3.69265 -24.41168,5.04809 -32.49659,2.59247 z M 500,186.5057 c -4.25926,-1.69341 -10.36714,-7.47666 -12.7857,-12.10615 -2.47667,-4.74072 -2.44528,-20.10738 0.0509,-24.9345 6.56181,-12.68915 23.87472,-18.11525 36.67682,-11.49502 7.89058,4.08037 14.70975,15.22024 14.70975,24.02997 0,9.3037 -7.38776,20.77227 -15.58813,24.19861 -4.96797,2.07575 -18.1729,2.25157 -23.06366,0.30709 z"
         id="path8" />
      <path
         style="fill:#b8c8ae"
         d="m 528,667.19842 c -22.21311,-5.9352 -37.66826,-28.12951 -35.5304,-51.02331 1.6118,-17.26044 12.47148,-32.41012 28.6302,-39.94027 6.41843,-2.99105 9.38814,-3.52624 19.56687,-3.52624 10.17873,0 13.14844,0.53519 19.56686,3.52624 10.31355,4.80623 18.96984,13.15307 23.78562,22.93532 13.49826,27.41885 -1.68306,60.45436 -31.29928,68.10919 -9.66753,2.49873 -15.13215,2.48084 -24.71987,-0.0809 z m -82.66667,-43.10389 v -41.2388 l -7.3501,-1.52588 C 413.58896,576.26562 392.45496,555.9005 386.04159,531.27793 375.06367,489.13085 408.16647,446.66667 452,446.66667 c 37.15577,0 68,30.84422 68,68 0,32.65491 -22.74419,59.80218 -56.33333,67.23898 L 460,582.71747 v 41.30793 41.30793 h -7.33333 -7.33334 z m -81.12831,28.53036 c -13.46066,-5.84507 -22.87251,-20.04456 -22.87063,-34.50452 0.003,-24.74702 23.73184,-43.03857 47.0412,-36.26235 C 404.75215,586.61881 416,601.33229 416,617.99391 c 0,14.75382 -9.50249,28.97979 -23.17291,34.69166 -6.08049,2.54059 -22.71279,2.50533 -28.62207,-0.0607 z m -103.17741,-35.47373 -0.36094,-26.84885 -7.19383,-1.8401 c -19.41252,-4.9655 -35.44669,-20.25147 -40.91111,-39.00207 -1.53801,-5.27753 -2.02137,-10.97098 -1.65211,-19.46014 0.43687,-10.04331 1.21574,-13.48166 4.77671,-21.08673 9.1878,-19.62216 29.98291,-32.84808 51.647,-32.84808 21.6641,0 42.4592,13.22592 51.64701,32.84808 7.77139,16.59718 6.57843,39.13272 -2.85937,54.01458 -7.76036,12.23681 -23.34588,23.55523 -35.60169,25.85444 L 276,589.63011 V 616.81505 644 h -7.30573 -7.30572 z M 796,456.66667 v -174 h 19.33333 19.33334 v 21.42164 21.42164 l 6.75496,-8.42164 c 18.53271,-23.10534 43.47298,-35.34105 74.91124,-36.75148 25.5563,-1.14655 44.71871,3.28352 64.032,14.80326 30.14503,17.98053 48.35193,48.59309 53.07783,89.24378 6.4207,55.22947 -18.1372,105.46828 -62.10746,127.05456 -17.72841,8.70339 -25.87805,10.46449 -48.66857,10.51701 -16.6569,0.0384 -20.7177,-0.38972 -29.33334,-3.0925 -22.51595,-7.06339 -41.29787,-19.56246 -52.72864,-35.09007 l -5.93802,-8.06623 v 77.48001 77.48002 H 815.33333 796 Z m 134.08845,29.90821 c 4.35135,-0.78381 13.01155,-3.86492 19.24488,-6.84691 8.84427,-4.23104 13.38316,-7.51151 20.66667,-14.93679 16.52451,-16.84615 23.82442,-36.82887 23.66892,-64.79118 -0.15977,-28.72907 -6.78233,-46.44169 -23.8002,-63.65568 -10.91703,-11.04284 -23.23214,-17.74599 -38.57364,-20.99573 -11.76808,-2.4928 -19.13827,-2.51059 -31.85798,-0.0769 -28.35635,5.42546 -49.75162,24.7609 -59.31305,53.60268 -4.8656,14.67696 -6.16306,28.27485 -4.2215,44.24316 3.76579,30.97169 19.02729,54.28488 43.43237,66.34653 15.98491,7.90017 33.07721,10.29489 50.75353,7.11083 z m -586.08912,79.75845 c -8.44034,-5.76128 -11.77672,-17.73948 -7.33407,-26.33062 5.79018,-11.19696 20.83917,-14.92331 30.50236,-7.55283 8.84137,6.74364 11.31121,16.92701 6.36357,26.23759 -3.73127,7.02156 -9.92659,10.64586 -18.19786,10.64586 -5.00485,0 -8.16401,-0.83619 -11.334,-3 z m 228.56643,-3.74262 c -15.20462,-5.84963 -24.5091,-18.71234 -25.60339,-35.39464 -0.53916,-8.21957 -0.14514,-10.53144 2.98283,-17.50148 4.08275,-9.0976 10.60745,-16.02361 19.38813,-20.58067 4.90993,-2.54819 8.05903,-3.11392 17.33334,-3.11392 9.2743,0 12.4234,0.56573 17.33333,3.11392 8.78069,4.55706 15.30538,11.48307 19.38814,20.58067 3.12797,6.97004 3.52199,9.28191 2.98282,17.50148 -0.4363,6.65139 -1.6596,11.50985 -4.10945,16.32107 -9.02655,17.72713 -31.13747,26.21345 -49.69575,19.07357 z m 622.10094,-33.48883 c -4.7667,-0.6796 -14.0667,-3.0362 -20.6667,-5.23689 -47.0231,-15.67925 -75.2251,-56.10468 -77.5755,-111.19832 -1.2751,-29.88758 4.9549,-54.14875 19.6217,-76.41196 21.7513,-33.01687 56.8537,-50.85507 100.1698,-50.90386 48.6741,-0.0548 86.6129,22.02275 106.5126,61.98248 20.4876,41.14015 17.9779,94.36115 -6.1648,130.73366 -25.3959,38.26064 -72.6708,58.0533 -121.8971,51.03489 z m 46.395,-37.76249 c 27.2356,-8.60372 47.185,-31.89257 53.0846,-61.97061 2.6559,-13.5408 1.8954,-38.79012 -1.5471,-51.36878 -7.384,-26.98028 -24.9714,-45.96906 -50.8288,-54.87888 -8.9755,-3.09274 -12.5843,-3.59638 -25.7704,-3.59638 -13.2115,0 -16.8094,0.50411 -26,3.64297 -25.7924,8.80881 -42.6369,27.27627 -50.2564,55.09831 -3.9446,14.40366 -3.8914,42.95182 0.1084,58.13462 8.5282,32.37227 31.7331,53.85021 63.4813,58.75696 8.8337,1.36526 27.2054,-0.494 37.7284,-3.81821 z M 1670,527.25323 c -1.4667,-0.33704 -5.9667,-1.25922 -10,-2.04928 -22.1287,-4.33463 -39.823,-14.03597 -56.6667,-31.06904 -23.2536,-23.51503 -34,-52.21474 -34,-90.80158 0,-61.77327 34.3424,-107.27491 89.4165,-118.47153 23.2547,-4.7277 49.1086,-3.56218 68.4285,3.08484 38.3004,13.17728 65.1442,44.73084 72.1289,84.78385 2.0088,11.51968 2.7316,38.50136 1.1858,44.26951 l -0.804,3 h -94.5112 -94.5111 v 4.38653 c 0,7.06149 3.6715,19.52499 8.9201,30.28014 14.0444,28.77943 47.8153,44.23468 83.1697,38.06262 21.466,-3.74747 39.3521,-16.48739 47.3893,-33.75456 l 3.8542,-8.2803 21.6075,-0.0139 21.6075,-0.0139 -1.8993,5.38322 c -3.4567,9.7975 -12.52,25.83225 -19.1895,33.95011 -12.7665,15.53893 -33.5863,28.3401 -55.4595,34.09961 -10.2739,2.70524 -43.5933,4.77913 -50.6667,3.15362 z m 89.9803,-144.9199 c -0.054,-15.58322 -8.04,-34.31261 -19.5393,-45.8259 -8.934,-8.94497 -24.8452,-16.99332 -37.9723,-19.20748 -12.8946,-2.17496 -32.7967,-0.97986 -42.9368,2.57832 -24.0876,8.45229 -40.6663,27.52181 -46.897,53.94292 -1.0609,4.49835 -1.9377,9.52881 -1.9485,11.17881 l -0.02,3 H 1685.3333 1760 Z m 396.9118,144.2716 c -21.0408,-3.53251 -35.4325,-14.75534 -42.2344,-32.93483 -4.3848,-11.71962 -5.2533,-28.46586 -5.29,-102.00343 l -0.034,-69 H 2094 2078.6667 V 306 289.33333 h 15.3078 15.3078 l 0.3589,-29.66666 L 2110,230 l 19.6667,-0.36898 19.6666,-0.36897 v 30.03564 30.03564 H 2180.6667 2212 V 306 322.66667 h -31.4132 -31.4131 l 0.4131,75.66666 L 2150,474 l 3.3333,6.66667 c 2.655,5.31 4.6609,7.3246 9.8569,9.89979 5.8602,2.90436 8.6735,3.29509 27.6667,3.84248 L 2212,495.01829 V 511.50915 528 l -24.3333,-0.15683 c -13.3834,-0.0862 -27.2319,-0.64346 -30.7746,-1.23824 z M 1412,404.66667 V 285.33333 h 20 20 v 18.81861 18.8186 l 5.4174,-8.11262 c 2.9796,-4.46194 8.1973,-10.55959 11.595,-13.55033 12.5255,-11.02539 36.6027,-19.97426 53.7414,-19.97426 h 6.5795 V 302 322.66667 l -9.6666,0.0101 c -30.066,0.0313 -49.8163,10.20106 -59.9304,30.85906 -7.2392,14.7859 -7.7363,21.15164 -7.7363,99.07466 V 524 h -20 -20 z m 521.3333,118.49268 c -11.1446,-2.17713 -28.9208,-7.58106 -34.893,-10.60738 -15.762,-7.98724 -30.2995,-22.24583 -36.5872,-35.8853 -3.5418,-7.68309 -7.646,-24.17779 -6.4837,-26.05832 0.4438,-0.71806 9.3946,-1.27502 20.4907,-1.27502 h 19.7027 l 2.1374,7.68789 c 5.794,20.83966 25.7147,32.89001 54.2998,32.84678 20.6206,-0.0312 36.0913,-6.47347 43.5491,-18.13467 5.1929,-8.11964 5.8557,-20.82807 1.4795,-28.36732 -6.5659,-11.31168 -19.5348,-17.12777 -68.3619,-30.65781 -49.3972,-13.688 -70.3139,-35.6968 -68.4094,-71.98118 0.7949,-15.14501 6.0114,-26.07154 18.1042,-37.92115 14.3909,-14.1015 31.4562,-21.51008 55.8001,-24.22459 15.4014,-1.71736 35.1715,0.19852 49.829,4.82885 26.4393,8.35216 45.7704,29.41027 51.3369,55.9232 3.2141,15.309 4.8827,14 -17.8458,14 h -19.8516 l -0.9204,-5 c -2.5989,-14.11814 -11.7945,-25.72838 -25.2198,-31.84238 -11.405,-5.19395 -32.3216,-6.11803 -45.8019,-2.0235 -21.2371,6.45056 -31.306,25.08535 -22.9175,42.4138 5.7164,11.80838 17.4729,17.93148 55.8962,29.11219 39.5461,11.50746 54.2046,18.51287 66.2386,31.65596 19.5296,21.3296 19.0643,56.01418 -1.0582,78.87449 -9.5672,10.86892 -24.0256,19.19961 -41.8471,24.11166 -7.904,2.17854 -41.5123,3.92143 -48.6667,2.5238 z M 342.47804,502.45666 c -13.26212,-7.69024 -13.88219,-25.57511 -1.22034,-35.19896 2.49868,-1.89916 5.54518,-2.59103 11.40897,-2.59103 11.92538,0 19.26116,6.50835 20.37253,18.07465 1.57927,16.43572 -16.3123,27.97776 -30.56116,19.71534 z m 290.98029,-17.29821 c -10.52509,-1.74701 -23.19929,-8.52259 -31.53542,-16.85872 -23.04265,-23.04266 -23.03549,-60.6944 0.0159,-83.74581 34.35911,-34.35911 92.61766,-15.30317 100.75781,32.95713 5.30029,31.42368 -17.382,62.54561 -49.36331,67.73043 -9.72111,1.57599 -9.88411,1.57531 -19.875,-0.083 z m -104.125,-55.62972 v -47.80459 l -9.3389,-1.54229 c -33.53537,-5.53825 -60.1207,-28.16508 -71.50883,-60.86131 -3.31667,-9.52242 -3.71256,-12.49469 -3.72776,-27.98721 -0.0157,-15.96084 0.30579,-18.24316 4.05963,-28.82366 9.67974,-27.2832 29.68017,-47.10718 57.19533,-56.69073 9.53811,-3.32214 12.46915,-3.71076 27.9872,-3.71076 15.51805,0 18.44909,0.38862 27.9872,3.71076 27.51516,9.58355 47.51559,29.40753 57.19533,56.69073 3.75384,10.5805 4.07529,12.86282 4.05963,28.82366 -0.0152,15.49252 -0.41109,18.46479 -3.72776,27.98721 -10.85906,31.17722 -35.7812,53.5199 -66.84773,59.92892 l -8,1.6504 -0.34997,48.21673 -0.34996,48.21674 h -7.31671 -7.3167 z M 186,472.79936 c -14.43093,-6.36016 -20.26033,-24.82445 -12.18678,-38.60092 10.55305,-18.00743 36.48718,-18.00743 47.04023,0 8.15407,13.91387 2.16561,32.46624 -12.47729,38.65489 -5.40673,2.28509 -17.13311,2.25681 -22.37616,-0.054 z M 297.49437,459.8303 c -59.96344,-9.9597 -97.06079,-72.83348 -77.00354,-130.50808 17.87984,-51.41347 74.61784,-78.76536 126.18695,-60.83139 51.41347,17.87984 78.76536,74.61784 60.83139,126.18695 -15.7416,45.26495 -62.61674,73.02516 -110.0148,65.15252 z m 138.60046,-36.16363 c -10.03565,-6.10739 -13.74219,-13.24086 -13.13327,-25.27588 0.55194,-10.90889 5.20494,-18.51417 14.24815,-23.28843 12.50768,-6.60328 28.65391,-2.7703 36.74995,8.72413 3.24731,4.6104 4.04106,7.23055 4.41212,14.5643 0.60891,12.03502 -3.09762,19.16849 -13.13328,25.27588 -5.78821,3.52252 -8.51475,4.33333 -14.57183,4.33333 -6.05708,0 -8.78363,-0.81081 -14.57184,-4.33333 z M 653.3247,354.82259 c -13.9,-4.51259 -21.35759,-14.24099 -21.29542,-27.77977 0.11064,-24.09142 28.26526,-37.07622 46.21647,-21.31485 11.75909,10.32461 13.03464,29.62752 2.69061,40.71692 -6.33507,6.79158 -19.85849,10.89474 -27.61166,8.3777 z M 200.66667,292.64338 c -22.04395,-11.86992 -19.3658,-42.57479 4.3139,-49.45867 6.30157,-1.83191 7.73729,-1.83191 14.03886,0 11.41901,3.3196 19.64724,14.13434 19.64724,25.82328 0,6.79454 -4.83736,15.9124 -11.07516,20.87538 -4.30204,3.42283 -6.43472,4.10467 -14,4.47591 -6.36228,0.31221 -10.07335,-0.18047 -12.92484,-1.7159 z m 183.16139,-13.98469 c -16.30807,-8.61743 -19.16869,-30.29225 -5.66286,-42.9072 5.0008,-4.67093 9.85601,-6.41816 17.8348,-6.41816 7.97879,0 12.834,1.74723 17.8348,6.41816 13.62209,12.72354 10.60327,34.5291 -5.9494,42.97364 -6.65382,3.39453 -17.56465,3.36439 -24.05734,-0.0664 z M 269.59972,251.92263 c -9.33444,-4.66448 -13.97279,-9.57304 -18.63956,-19.72541 -2.86046,-6.22282 -3.20448,-8.52649 -2.68803,-18 0.36397,-6.6763 1.48263,-12.56491 2.90216,-15.27687 13.29711,-25.40365 46.65355,-30.75318 65.76384,-10.54686 8.97279,9.48739 11.57815,16.71701 10.7887,29.93749 -0.76032,12.7327 -3.77964,19.09182 -13.00151,27.38307 C 306.57092,253.02556 298.46572,256 286.64211,256 c -7.23958,0 -10.39231,-0.75429 -17.04239,-4.07737 z m 136.89384,-32.59528 c -14.56688,-4.67527 -25.67374,-16.17702 -30.00324,-31.06996 -5.75386,-19.79258 5.11844,-42.46983 24.60879,-51.3286 8.79276,-3.9965 26.34236,-3.9965 35.13512,0 8.83089,4.01382 17.76925,12.76862 21.9992,21.5474 5.15281,10.69408 5.27584,25.63934 0.29842,36.25132 -4.90459,10.4567 -10.78967,16.57592 -20.57433,21.39289 -10.21449,5.02857 -22.03456,6.23333 -31.46396,3.20695 z m 94.17311,-33.12241 c -13.57552,-6.22835 -19.19552,-22.71814 -12.47452,-36.60186 6.4245,-13.27126 24.40532,-17.96653 37.35466,-9.7543 15.76836,9.99999 15.81181,33.44008 0.082,44.21833 -5.62384,3.85352 -18.76879,4.97929 -24.96212,2.13783 z"
         id="path7" />
      <path
         style="fill:#aeafae"
         d="m 530.97609,667.98621 c -8.46129,-1.7674 -21.2327,-9.08324 -26.40442,-15.12524 -21.96213,-25.65781 -13.25259,-62.8406 18.095,-77.25113 4.65512,-2.13996 8.68975,-2.7582 18,-2.7582 13.18004,0 19.11984,1.93568 29.65112,9.66282 12.97436,9.51971 20.78249,28.99886 18.04055,45.00623 -2.93121,17.1123 -11.26708,28.52677 -26.09703,35.73518 -10.54691,5.12655 -21.47673,6.77914 -31.28522,4.73034 z m -85.64276,-44.4811 v -41.82823 l -6.39026,-0.8477 c -10.63448,-1.41071 -24.82802,-9.13388 -34.42699,-18.73286 -26.61774,-26.61774 -26.60584,-68.25348 0.0271,-94.88644 26.64606,-26.64607 68.26752,-26.64607 94.91358,0 26.63297,26.63296 26.64487,68.2687 0.0271,94.88644 -9.32652,9.32653 -23.39461,17.12706 -33.6662,18.66738 L 460,581.63612 v 41.84861 41.8486 h -7.33333 -7.33334 z m -83.80565,27.04819 c -28.37377,-14.17854 -26.35985,-54.67586 3.35472,-67.45942 6.69219,-2.87905 20.87634,-2.87905 27.56853,0 C 406.61045,589.18547 416,603.10333 416,618 c 0,27.75128 -29.18221,45.19091 -54.47232,32.5533 z M 261.33333,616.78386 v -27.21613 l -5.19258,-0.87728 c -2.85593,-0.48251 -8.82669,-2.59595 -13.26838,-4.69653 -36.1446,-17.09369 -43.22979,-65.20941 -13.59562,-92.3282 21.95071,-20.0875 54.16246,-20.0875 76.11316,0 33.05057,30.2452 19.64944,84.56547 -23.74557,96.25053 L 276,589.43612 V 616.71806 644 h -7.33333 -7.33334 z M 796,456.66667 v -174 h 19.3003 19.30031 l 0.36636,21.57343 0.36636,21.57343 3.47012,-5.24783 c 9.83429,-14.87236 29.4068,-29.00372 49.01082,-35.38585 10.73584,-3.49508 15.59709,-4.29191 29.51906,-4.83861 27.22823,-1.06922 47.61516,4.41648 68.61715,18.46347 22.36932,14.96154 39.15742,41.21596 45.16552,70.63321 10.2936,50.40013 -4.3303,99.46398 -38.1247,127.91047 -21.62022,18.19884 -47.67693,26.66506 -76.70858,24.92378 -16.26958,-0.97583 -25.76494,-3.46834 -40.9528,-10.75001 -14.20899,-6.81236 -25.91244,-16.16347 -34.45899,-27.53289 l -6.20426,-8.25349 v 77.46544 77.46545 H 815.33333 796 Z m 137.00476,29.32799 c 13.86426,-3.26887 26.52049,-10.50896 36.999,-21.16555 C 986.53111,448.02087 993.87944,427.93098 993.71645,400 993.55801,372.84761 987.12913,354.54213 972,338.16496 c -9.19968,-9.95858 -18.29486,-15.83049 -31.26342,-20.18389 -34.45073,-11.56473 -72.0727,1.01593 -91.30274,30.53133 -13.80633,21.19077 -18.02169,50.14723 -11.37738,78.15427 10.12492,42.67849 52.70909,69.287 94.9483,59.32799 z m -589.00543,80.33867 c -12.11564,-8.27 -12.21108,-25.90688 -0.18366,-33.94095 7.12975,-4.76254 12.50814,-5.18114 19.77135,-1.53883 7.98757,4.00557 11.30704,8.62338 12.01454,16.71379 1.08631,12.42207 -7.61464,21.76599 -20.26823,21.76599 -5.00485,0 -8.16401,-0.83619 -11.334,-3 z m 228.08411,-3.92254 c -21.41437,-8.22204 -31.52137,-34.64649 -21.06637,-55.07746 18.50403,-36.16026 72.50073,-25.16672 75.31234,15.33334 2.01507,29.02607 -26.92908,50.23243 -54.24597,39.74412 z m 627.24986,-33.03244 c -38.6771,-4.43872 -70.9146,-25.99145 -87.9408,-58.79387 -19.0969,-36.79164 -20.1381,-84.31525 -2.6554,-121.20323 20.0215,-42.24472 63.3908,-66.21879 115.1521,-63.65474 19.8653,0.98404 33.3236,4.48678 50.7775,13.21564 12.1869,6.09481 15.6403,8.64556 26.6666,19.69636 16.9838,17.0215 24.1335,29.58001 30.9547,54.37195 2.4025,8.73214 2.8452,14.02122 2.8726,34.32287 0.028,20.68446 -0.3733,25.47358 -2.9046,34.66667 -3.7771,13.71786 -12.8367,32.40794 -20.8368,42.98677 -23.8567,31.54646 -68.8254,49.3563 -112.0859,44.39158 z m 33.2951,-35.3936 c 15.6736,-3.3201 27.6588,-9.9338 39.2743,-21.67242 16.8302,-17.00872 24.1437,-36.28145 24.1957,-63.76142 0.044,-23.47168 -4.615,-40.85349 -15.1828,-56.63917 -17.0827,-25.51756 -50.4326,-38.103 -82.7989,-31.24624 -40.1945,8.51519 -64.293,44.56285 -61.684,92.27004 1.4963,27.36178 8.7413,45.70087 24.1366,61.09611 18.6744,18.67444 44.4291,25.80588 72.0591,19.9531 z m 433.7152,32.56856 c -11.5583,-1.69306 -31.225,-8.6944 -41.5002,-14.77403 -18.6533,-11.03679 -36.1662,-31.17541 -44.8437,-51.5672 -7.8855,-18.53085 -9.9356,-30.23621 -9.9614,-56.87875 -0.02,-20.95069 0.367,-25.43194 3.0484,-35.27034 8.3287,-30.55825 24.7315,-53.70111 48.61,-68.58388 33.4388,-20.84153 84.1271,-23.38204 118.7022,-5.94939 29.7376,14.99358 48.3823,37.98054 57.0506,70.33727 2.9223,10.9083 4.9855,42.50924 3.346,51.24859 L 1799.8792,420 h -94.6063 -94.6062 v 4.38653 c 0,7.05461 3.6692,19.51922 8.9136,30.28014 8.7036,17.85869 25.8477,31.62058 45.9036,36.84773 11.7768,3.06938 34.0593,3.04327 44.4592,-0.0521 18.6053,-5.53763 33.1169,-17.26435 40.2027,-32.48756 l 3.8542,-8.2803 21.1445,-0.0139 21.1446,-0.0139 -0.8404,3.66666 c -0.4622,2.01667 -3.6166,9.34408 -7.0098,16.28313 -5.1873,10.60803 -8.1011,14.55875 -18.3041,24.81748 -13.8292,13.90463 -25.8889,21.36838 -42.8015,26.48967 -19.1916,5.81144 -41.4087,7.49793 -60.9897,4.6297 z m 93.6367,-144.21998 c -0.011,-3.11666 -0.9258,-9.51082 -2.0333,-14.20924 -7.5184,-31.89585 -35.4158,-52.02302 -72.2147,-52.10094 -14.4134,-0.0305 -22.9454,1.85501 -35.0656,7.74933 -13.4316,6.53207 -24.8197,17.90791 -31.1169,31.08341 -4.8518,10.15139 -8.8831,23.61616 -8.8831,29.6699 V 388 H 1685.3333 1760 Z m 396.9118,144.2716 c -21.4607,-3.603 -36.7515,-16.01989 -43.1875,-35.07033 -2.0844,-6.16992 -2.3617,-15.10023 -2.728,-87.86793 l -0.4077,-81 h -15.9511 -15.9511 V 306 289.33333 h 16 16 v -30 -30 H 2130 h 19.3333 v 30 30 H 2180.6667 2212 V 306 322.66667 h -31.4036 -31.4036 L 2149.5964,399 2150,475.33333 l 3.3333,6 c 2.4685,4.44316 5.0572,6.85392 9.9769,9.29095 6.0243,2.98425 8.6026,3.3408 27.6666,3.82596 L 2212,494.98527 V 511.49264 528 l -24.3333,-0.15683 c -13.3834,-0.0862 -27.2319,-0.64346 -30.7746,-1.23824 z M 1412,404.66667 V 285.33333 h 20 20 v 18.81861 18.8186 l 5.429,-8.12994 c 6.6264,-9.92311 15.058,-17.33186 26.7211,-23.47945 10.1137,-5.33095 27.9434,-10.00483 38.218,-10.01848 l 7.0347,-0.009 -0.3681,20.33334 -0.368,20.33333 -14.0459,0.8712 c -16.6731,1.03416 -23.3134,2.64007 -33.7154,8.15382 -14.0007,7.42133 -22.7775,20.50203 -26.7845,39.91877 -1.7846,8.64752 -2.1209,21.59706 -2.1209,81.66667 V 524 h -20 -20 z m 519.8925,118.07399 c -10.59,-1.94487 -26.5412,-6.67861 -32.3234,-9.59244 -16.428,-8.27848 -31.4212,-22.82893 -37.8186,-36.70183 -3.3495,-7.26354 -7.4211,-24.15537 -6.2709,-26.01635 0.3728,-0.60319 9.5711,-1.09671 20.4408,-1.09671 h 19.763 l 1.5795,6.33334 c 4.4356,17.78514 17.6933,28.82103 39.8696,33.18788 33.3948,6.57598 62.8675,-8.67402 62.8675,-32.52942 0,-18.57009 -11.4481,-26.89879 -52.6667,-38.31614 -42.522,-11.77841 -55.778,-17.52719 -69.0555,-29.94767 -13.6513,-12.77006 -19.0855,-27.04407 -18.0205,-47.3343 0.4525,-8.62123 1.4377,-12.70371 4.7996,-19.88792 7.9383,-16.96372 26.5927,-31.83817 47.7086,-38.04144 19.6095,-5.76071 46.1429,-6.11928 66.0488,-0.89257 30.0013,7.87747 50.4039,28.67944 56.5419,57.64852 3.1884,15.04846 4.8342,13.77972 -17.8745,13.77972 h -19.8516 l -0.9302,-5 c -2.9358,-15.77918 -13.9972,-28.42448 -29.2419,-33.42897 -9.9788,-3.27579 -27.8501,-3.93592 -39.4141,-1.45589 -7.9818,1.7118 -17.5935,7.89344 -23.2212,14.93445 -8.19,10.24684 -5.7727,28.71803 4.9478,37.80747 6.3399,5.37531 20.922,11.67382 39.5628,17.0886 33.5196,9.73674 39.5626,11.78721 51.4927,17.47201 14.1533,6.74418 25.2706,16.2028 30.9613,26.34197 9.3068,16.58189 9.8049,37.56316 1.3159,55.42713 -8.0236,16.88475 -26.5378,31.01502 -49.125,37.49291 -11.0871,3.17973 -41.0734,4.75007 -52.0857,2.72765 z M 345.33402,503.90667 c -11.71629,-4.92248 -16.62826,-18.41712 -10.57711,-29.05846 4.4046,-7.74578 8.68921,-10.18154 17.90976,-10.18154 9.22054,0 13.50515,2.43576 17.90975,10.18154 5.2491,9.23087 2.5508,19.94928 -6.75744,26.84247 -4.12677,3.05608 -13.74189,4.20874 -18.48496,2.21599 z m 281.92681,-20.545 C 611.46849,478.37198 597.41098,466.09136 590.29548,451.06882 586.2318,442.48939 586,441.17255 586,426.66667 c 0,-14.48604 0.23588,-15.83129 4.2686,-24.34471 5.92889,-12.51637 15.80714,-22.5586 28.2294,-28.69802 9.833,-4.85973 10.33481,-4.95727 25.502,-4.95727 15.16719,0 15.669,0.0975 25.502,4.95727 12.42226,6.13942 22.30051,16.18165 28.2294,28.69802 4.03272,8.51342 4.2686,9.85867 4.2686,24.34471 0,14.50588 -0.2318,15.82272 -4.29548,24.40215 -7.26733,15.34311 -21.29243,27.43332 -37.5465,32.36662 -7.53181,2.28599 -25.5565,2.24557 -32.89719,-0.0738 z m -97.9275,-53.93849 c 0,-54.00472 1.26791,-48.40025 -11.33333,-50.09633 -15.41774,-2.07516 -34.34412,-12.05192 -47.14286,-24.85066 -35.08571,-35.08571 -35.08571,-91.2 0,-126.28571 35.08572,-35.08572 91.2,-35.08572 126.28572,0 35.08571,35.08571 35.08571,91.2 0,126.28571 -12.61831,12.61831 -31.41571,22.61343 -46.80953,24.88998 L 544,380.30278 v 48.51528 48.51527 h -7.33333 -7.33334 z m -342.66666,43.75225 c -4.27575,-1.69603 -11.66682,-8.77132 -14.18364,-13.57767 -3.29944,-6.30092 -2.60009,-18.69282 1.44445,-25.59429 10.37499,-17.70359 36.43671,-17.70359 46.81171,0 4.04453,6.90147 4.74389,19.29337 1.44444,25.59429 -2.63539,5.03279 -9.9996,11.91796 -14.60376,13.65379 -4.63279,1.74663 -16.42619,1.70371 -20.9132,-0.0761 z m 110.8277,-13.34513 c -59.96344,-9.9597 -97.06079,-72.83348 -77.00354,-130.50808 17.87984,-51.41347 74.61784,-78.76536 126.18695,-60.83139 51.41347,17.87984 78.76536,74.61784 60.83139,126.18695 -15.7416,45.26495 -62.61674,73.02516 -110.0148,65.15252 z M 440,425.87426 c -6.10906,-2.64613 -11.59897,-7.95262 -14.92988,-14.43105 -4.00465,-7.78885 -2.96658,-20.13456 2.32466,-27.64675 11.15436,-15.83632 35.38941,-15.83632 46.54378,0 5.29123,7.51219 6.32931,19.8579 2.32465,27.64675 C 469.10306,425.36932 453.32774,431.64716 440,425.87426 Z M 653.3247,354.82259 C 639.42037,350.3086 632,340.62437 632,326.99201 c 0,-17.6954 17.58968,-31.63213 34.33333,-27.20315 25.34805,6.705 29.66284,40.57548 6.67094,52.36582 -5.82259,2.98585 -14.90681,4.21737 -19.67957,2.66791 z M 200.27162,291.82908 C 175.82501,279.72827 184.66657,242.66667 212,242.66667 c 27.38827,0 36.19434,37.29832 11.61529,49.19684 -7.42884,3.59624 -16.03447,3.58354 -23.34367,-0.0344 z m 183.91743,-13.37419 c -15.37932,-7.61254 -19.23597,-27.66944 -7.82044,-40.671 5.29315,-6.02857 10.91964,-8.45056 19.63139,-8.45056 8.71175,0 14.33824,2.42199 19.63139,8.45056 18.90804,21.53506 -5.72643,53.40001 -31.44234,40.671 z M 274.26399,254.07475 c -16.20076,-5.77869 -26.17773,-19.78777 -26.23471,-36.83723 -0.0381,-11.40035 2.86828,-19.60964 9.6837,-27.35236 11.29557,-12.83246 29.21018,-17.24381 45.41123,-11.18222 8.88219,3.32325 19.33308,13.83505 22.8123,22.94526 3.21753,8.42498 2.39464,24.64195 -1.64923,32.50189 -3.81191,7.40909 -14.91841,17.13282 -22.53253,19.72721 -7.54108,2.5695 -20.57812,2.66314 -27.49076,0.19745 z M 404,217.77622 c -13.69888,-4.78657 -23.60842,-15.98448 -27.42356,-30.98901 -3.69383,-14.52742 0.46027,-28.81438 11.64884,-40.0632 16.94726,-17.0385 43.93552,-17.0385 60.88277,0 7.14167,7.18013 10.17824,12.99705 12.23067,23.42933 3.90293,19.83821 -8.70284,41.01471 -28.38532,47.68465 -7.99471,2.70922 -21.10302,2.68126 -28.9534,-0.0618 z m 96.66667,-31.62641 C 494.82103,183.59846 486.96708,174.29057 485.91133,168.66292 482.56331,150.81645 494.09516,136 511.33333,136 c 17.23818,0 28.77003,14.81645 25.42201,32.66292 -1.08461,5.78148 -9.00054,15.01011 -15.04585,17.54091 -5.39577,2.25888 -15.80474,2.23216 -21.04282,-0.054 z"
         id="path6" />
      <path
         style="fill:#90a981"
         d="m 522.10108,664.68947 c -20.10993,-8.26717 -32.51135,-30.71143 -28.67106,-51.8893 2.99315,-16.50626 12.42451,-28.73113 27.66961,-35.86517 7.58608,-3.54996 10.35453,-4.135 19.56704,-4.135 9.2125,0 11.98095,0.58504 19.56704,4.135 25.3075,11.84281 35.59747,41.06836 23.12541,65.68077 -4.46429,8.80986 -15.90464,19.06568 -25.10949,22.50965 -10.93868,4.09269 -25.56159,3.91633 -36.14855,-0.43595 z m -76.76775,-41.20775 v -41.85161 l -5,-0.92961 c -22.96705,-4.2701 -43.23634,-21.22461 -51.39416,-42.98931 -4.15391,-11.08245 -4.15391,-35.0066 0,-46.08904 6.55758,-17.49536 22.52095,-33.45873 40.01631,-40.01631 11.08244,-4.15391 35.0066,-4.15391 46.08904,0 17.49536,6.55758 33.45873,22.52095 40.01631,40.01631 4.15391,11.08244 4.15391,35.00659 0,46.08904 -4.27209,11.39774 -13.82275,23.94051 -23.43348,30.7749 -9.29717,6.61141 -14.42632,8.99332 -24.62735,11.43662 l -7,1.6766 v 41.86701 41.86701 h -7.33333 -7.33334 z m -77.34196,30.01839 c -14.87314,-4.87682 -26.65804,-20.5313 -26.65804,-35.41122 0,-19.8745 17.13211,-36.72951 37.33334,-36.72951 20.20123,0 37.33333,16.85501 37.33333,36.72951 0,12.09119 -9.40143,27.15695 -20.49572,32.8443 -5.97013,3.06052 -21.56905,4.51588 -27.51291,2.56692 z M 261.33333,616.78386 v -27.21613 l -5.19258,-0.87728 c -9.04856,-1.52875 -21.30899,-8.28407 -28.58596,-15.75045 -27.67315,-28.39346 -19.5957,-73.7611 16.14744,-90.69336 8.38601,-3.97263 9.9108,-4.24664 23.6311,-4.24664 13.72031,0 15.2451,0.27401 23.63111,4.24664 17.27061,8.18144 28.83478,23.40065 32.05197,42.18251 4.74259,27.68706 -13.73781,56.04597 -41.37207,63.4871 L 276,589.43612 V 616.71806 644 h -7.33333 -7.33334 z M 796,457.33333 V 284 h 19.33333 19.33334 l 0.0699,21 c 0.067,20.10929 0.16491,20.85862 2.30911,17.66667 4.98825,-7.42573 18.81693,-20.73669 27.26971,-26.24877 40.72064,-26.55407 100.59821,-20.40254 135.31489,13.90159 30.95942,30.59153 42.62502,83.32674 28.90542,130.66998 -10.4789,36.1607 -36.28802,64.25555 -69.36157,75.50459 -19.40427,6.59982 -44.30839,7.66746 -63.75046,2.733 -20.23578,-5.1359 -42.40166,-19.59534 -54.75896,-35.72082 l -5.99807,-7.82709 v 77.49376 77.49376 H 815.33333 796 Z m 138.0532,28.64279 c 21.12658,-5.38049 41.27008,-21.64989 50.32071,-40.64279 7.51587,-15.77215 9.4427,-24.8656 9.46451,-44.66666 0.0224,-20.29478 -1.94988,-29.44737 -9.76861,-45.33334 C 961.05363,308.56941 896.79,298.90808 859.3461,336.58249 848.99814,346.99415 843.16808,356.88238 838.46407,372 c -2.62348,8.43125 -3.10623,12.82374 -3.0773,28 0.0243,12.72468 0.70928,20.53997 2.33737,26.66667 7.92042,29.8055 30.06399,52.5105 57.74403,59.20807 10.51772,2.54492 28.80183,2.59295 38.58503,0.10138 z M 347.33333,568.149 c -1.46666,-0.63827 -4.28751,-2.78557 -6.26855,-4.77178 -9.72911,-9.75453 -7.27037,-26.16259 4.77713,-31.8795 17.85943,-8.47486 36.17532,8.81973 27.62968,26.08903 -1.56403,3.16062 -4.44313,6.90619 -6.39802,8.32349 -3.9042,2.83055 -15.38769,4.13291 -19.74024,2.23876 z m 228.38978,-4.60616 c -36.60263,-10.31333 -38.51024,-62.16336 -2.77889,-75.53217 18.99844,-7.10823 40.3315,1.4108 49.30785,19.69033 4.87913,9.93591 5.24082,24.25098 0.85479,33.83122 -3.58168,7.82335 -12.33668,16.64881 -19.7838,19.94302 -7.61882,3.37017 -19.75136,4.27905 -27.59995,2.0676 z m 625.61019,-34.24965 c -27.5954,-2.82667 -50.1493,-12.97971 -69.0832,-31.09908 -20.2784,-19.40595 -31.7531,-44.71075 -35.019,-77.22622 -5.4973,-54.73277 18.7274,-101.77491 63.4034,-123.12368 15.6548,-7.48075 29.99,-11.12394 47.644,-12.10838 77.2096,-4.30543 130.5641,49.44818 127.3118,128.26417 -0.8419,20.40153 -3.9118,33.48689 -11.7302,50 -21.1236,44.61468 -70.0209,70.67151 -122.5268,65.29319 z m 31.3334,-35.29233 c 26.2303,-5.48822 48.8817,-24.9391 57.6538,-49.50762 6.3705,-17.84213 7.8659,-42.34869 3.7728,-61.82657 -11.0377,-52.52439 -65.7946,-78.80064 -115.2596,-55.3098 -18.558,8.81315 -33.4199,27.99999 -39.7441,51.3098 -3.2257,11.88953 -3.239,43.55628 -0.024,56.4254 4.1218,16.49709 10.4869,28.09524 21.4174,39.02575 18.6711,18.67108 44.2721,25.72295 72.1833,19.88304 z m 438.6666,33.0863 c -44.8637,-5.75701 -79.8552,-33.62514 -94.2426,-75.05719 -6.7231,-19.36088 -9.489,-48.95184 -6.4917,-69.45077 7.0521,-48.22963 34.9847,-81.7746 79.4668,-95.43381 11.0789,-3.40202 13.6543,-3.66994 35.9342,-3.73836 25.5379,-0.0784 31.8646,0.93164 48.8771,7.8033 13.4452,5.43079 22.6641,11.69965 34.4943,23.45634 9.7082,9.64792 12.4415,13.4153 18.3794,25.33333 3.8364,7.7 8.1841,18.8 9.6615,24.66667 3.0565,12.1368 4.7595,36.41489 3.3473,47.71807 L 1799.8081,420 h -95.1535 -95.1536 l 0.7033,5 c 2.8609,20.33821 9.6942,35.16509 21.6775,47.0356 14.3042,14.16966 29.0942,20.59937 50.7849,22.07794 30.1189,2.05308 58.0168,-12.65582 68.0826,-35.89595 l 3.2507,-7.50541 21,-0.0228 c 15.9318,-0.0173 20.9961,0.37948 20.9837,1.64391 -0.033,3.35208 -8.9043,21.88442 -14.2216,29.70829 -11.4404,16.83347 -31.4048,31.92048 -51.1432,38.64876 -17.3949,5.92944 -42.1296,8.59826 -59.2856,6.39678 z M 1760,380.7355 c 0,-16.38812 -10.6609,-38.29921 -23.4622,-48.22156 -15.784,-12.23411 -29.6021,-16.66365 -51.8711,-16.62779 -21.3556,0.0344 -37.8499,6.64952 -52.165,20.92103 -11.5527,11.5174 -21.835,33.87301 -21.835,47.47295 V 388 H 1685.3333 1760 Z m 398.6008,145.84994 c -22.3952,-3.29724 -36.7857,-14.42295 -44.3326,-34.27467 -2.8525,-7.50334 -2.9134,-9.13567 -3.3027,-88.6441 l -0.3966,-81 H 2095.2844 2080 V 306 289.33333 h 15.3333 15.3334 v -30 -30 H 2130 h 19.3333 v 30 30 H 2180.6667 2212 V 306 322.66667 h -31.3944 -31.3943 L 2149.6056,399 c 0.4347,84.13188 0.2264,82.02815 8.8408,89.27676 5.697,4.7937 14.5948,6.38991 35.6192,6.38991 H 2212 V 511.33333 528 l -23,-0.16259 c -12.65,-0.0894 -26.3296,-0.65281 -30.3992,-1.25197 z M 1412,404.66667 V 285.33333 h 20 20 l 0.01,19 v 19 l 2.8426,-4.66306 c 12.5613,-20.60591 36.0942,-34.34708 62.9971,-36.78496 L 1528,280.96552 v 20.66459 20.6646 l -15,0.7318 c -34.1201,1.66461 -52.488,16.35131 -59.0228,47.19377 -1.5481,7.30627 -1.9355,23.45407 -1.954,81.44639 L 1452,524 h -20 -20 z m 520.0377,117.81255 c -10.8496,-1.79801 -25.0097,-6.25708 -34.0377,-10.71856 -22.2533,-10.99723 -38.3061,-31.61009 -41.7575,-53.61929 l -1.1721,-7.4747 h 20.3588 20.3589 L 1896.7234,455 c 2.6177,12.12737 11.2245,22.46788 23.6624,28.42858 20.875,10.00406 50.6565,9.06969 66.037,-2.07185 11.1112,-8.04893 16.0583,-20.35073 12.9707,-32.25379 -3.7074,-14.29254 -14.4897,-20.54732 -55.8234,-32.38302 -16.5159,-4.72925 -33.8257,-10.18601 -38.4662,-12.12612 -24.8745,-10.39967 -39.3365,-25.54313 -43.6047,-45.65943 -7.164,-33.76384 11.9143,-62.92387 49.1675,-75.14982 11.0565,-3.62857 15.0561,-4.23865 31.4639,-4.79928 22.9808,-0.78522 36.0904,1.49114 52.3233,9.08545 14.3029,6.69145 28.4111,20.26958 34.5609,33.26261 3.1927,6.74526 8.3185,25.19648 8.3185,29.94379 0,0.39759 -8.9332,0.72288 -19.8516,0.72288 h -19.8516 l -0.9204,-5 c -3.6111,-19.61629 -19.51,-32.60642 -42.8559,-35.01508 -24.6135,-2.53946 -45.7971,5.98048 -52.0443,20.93196 -2.6717,6.39438 -2.2914,18.24467 0.7786,24.26248 6.5184,12.7771 15.6325,17.2481 64.0786,31.43425 31.3985,9.19425 47.9882,17.57145 58.5428,29.56219 20.5475,23.34312 17.225,63.09097 -7.0167,83.94396 -20.0045,17.20806 -55.1109,25.50414 -86.1551,20.35946 z M 346.1391,503.94876 c -8.96724,-2.68342 -15.34297,-13.78021 -13.51523,-23.5229 1.88259,-10.03507 13.60762,-17.80482 23.94269,-15.86594 6.15806,1.15526 13.49959,7.58047 15.46456,13.53437 3.40428,10.31509 -3.07585,23.07035 -13.14081,25.86589 -5.66129,1.57242 -7.46386,1.57081 -12.75121,-0.0114 z M 632.05483,484.4391 c -39.87167,-8.48345 -59.41842,-55.44126 -37.37644,-89.79071 19.26947,-30.02885 61.31225,-35.81738 88.1693,-12.1393 32.75294,28.8761 23.20881,82.58915 -17.57084,98.88637 -7.26497,2.90338 -25.87014,4.60789 -33.22202,3.04364 z M 529.33333,428.66667 V 380 h -3.78671 c -7.06124,0 -24.44763,-5.27266 -34.01061,-10.31418 -12.84614,-6.77236 -29.11613,-23.04236 -35.8885,-35.8885 -13.79717,-26.17109 -13.79717,-58.75689 0,-84.92798 6.77237,-12.84613 23.04236,-29.11613 35.8885,-35.8885 26.17109,-13.79716 58.75689,-13.79716 84.92798,0 12.84614,6.77237 29.11613,23.04237 35.8885,35.8885 10.22827,19.40144 13.10339,43.79838 7.66667,65.05576 -8.00416,31.29597 -34.55004,57.11658 -65.889,64.08884 L 544,380.26768 v 48.53283 48.53282 h -7.33333 -7.33334 z m -342.65714,43.87602 c -19.13222,-8.2968 -21.71768,-32.85927 -4.88576,-46.41594 4.74818,-3.82426 5.88749,-4.12675 15.5429,-4.12675 9.65542,0 10.79472,0.30249 15.54291,4.12675 16.96188,13.66135 14.20483,38.37471 -5.18494,46.47628 -6.20067,2.5908 -14.95964,2.56565 -21.01511,-0.0603 z M 300.71856,459.92141 C 277.61964,456.34922 261.25052,448.02403 244.61325,431.38675 224.46193,411.23543 215.70574,390.21794 215.70574,362 c 0,-28.21794 8.75619,-49.23543 28.90751,-69.38675 20.15132,-20.15132 41.16881,-28.90751 69.38675,-28.90751 28.21794,0 49.23543,8.75619 69.38675,28.90751 20.15132,20.15132 28.90751,41.16881 28.90751,69.38675 0,17.91133 -3.07681,30.6546 -11.19881,46.38229 -7.91771,15.33209 -25.38107,32.79545 -40.71316,40.71316 -18.2247,9.41149 -41.50045,13.63487 -59.66373,10.82596 z M 442,426.58538 c -5.96415,-1.75065 -14.01925,-9.01418 -16.80958,-15.15773 -6.44061,-14.18043 0.45473,-31.23921 15.10009,-37.35692 13.53612,-5.65436 29.47791,0.83646 35.84834,14.59594 9.94002,21.46943 -10.98768,44.71425 -34.13885,37.91871 z m 205.08348,-74.68447 c -19.6417,-9.72254 -19.70249,-39.3612 -0.10135,-49.40916 21.55888,-11.05153 46.09133,8.60707 39.85213,31.93474 -4.53023,16.93802 -23.75825,25.39065 -39.75078,17.47442 z M 199.91652,290.98127 c -8.95378,-4.67751 -13.24985,-11.99792 -13.24985,-22.57743 0,-9.29792 3.75766,-16.65661 10.92896,-21.40235 4.6512,-3.07802 6.9686,-3.66816 14.40437,-3.66816 7.43577,0 9.75317,0.59014 14.40437,3.66816 10.79275,7.1423 14.2427,22.31271 7.83136,34.43674 -3.68679,6.97184 -14.20353,13.22844 -22.23573,13.22844 -2.90177,0 -8.01275,-1.55883 -12.08348,-3.6854 z M 383.87638,278.22981 C 366.78652,269.20407 365.51247,244.31149 381.59563,233.66815 386.24683,230.59014 388.56423,230 396,230 c 7.43577,0 9.75317,0.59014 14.40437,3.66815 11.59489,7.67314 14.88302,23.23422 7.44652,35.24073 -7.3108,11.80356 -21.76514,15.76912 -33.97451,9.32093 z M 273.34,253.67474 c -3.75114,-1.32358 -8.78417,-4.90558 -13.45317,-9.57458 -9.41791,-9.41791 -12.51623,-17.64463 -11.57894,-30.74462 2.54354,-35.54928 46.46889,-50.17943 70.08977,-23.34469 22.31638,25.35274 3.45208,66.23112 -30.39766,65.87086 -4.76667,-0.0507 -11.36367,-1.04387 -14.66,-2.20697 z m 131.83638,-35.43667 c -11.22778,-4.19577 -19.66251,-11.67469 -25.49784,-22.60848 -2.51201,-4.70679 -3.00406,-7.70591 -3.00178,-18.29626 0.002,-11.12512 0.43201,-13.478 3.53017,-19.33333 4.47417,-8.45593 11.68572,-15.65424 19.60199,-19.56601 8.96045,-4.42774 28.75505,-4.42774 37.71549,0 7.91627,3.91177 15.12782,11.11008 19.602,19.56601 3.09815,5.85533 3.52777,8.20821 3.53017,19.33333 0.003,14.11866 -1.98319,19.55735 -10.64292,29.14265 -7.67788,8.49849 -16.90873,12.63179 -29.33048,13.13332 -6.73283,0.27184 -12.46683,-0.2352 -15.5068,-1.37123 z m 95.49029,-32.75813 c -20.19407,-9.32016 -20.41922,-36.66963 -0.38645,-46.94303 16.19164,-8.30356 37.11771,4.73948 37.02383,23.07664 -0.0977,19.07634 -19.55423,31.75078 -36.63738,23.86639 z"
         id="path5" />
      <path
         style="fill:#8f8f90"
         d="m 522.10108,664.68947 c -20.10993,-8.26717 -32.51135,-30.71143 -28.67106,-51.8893 2.99315,-16.50626 12.42451,-28.73113 27.66961,-35.86517 7.58608,-3.54996 10.35453,-4.135 19.56704,-4.135 9.2125,0 11.98095,0.58504 19.56704,4.135 25.3075,11.84281 35.59747,41.06836 23.12541,65.68077 -4.46429,8.80986 -15.90464,19.06568 -25.10949,22.50965 -10.93868,4.09269 -25.56159,3.91633 -36.14855,-0.43595 z M 367.99137,653.50011 c -14.87314,-4.87682 -26.65804,-20.5313 -26.65804,-35.41122 0,-19.8745 17.13211,-36.72951 37.33334,-36.72951 20.20123,0 37.33333,16.85501 37.33333,36.72951 0,12.09119 -9.40143,27.15695 -20.49572,32.8443 -5.97013,3.06052 -21.56905,4.51588 -27.51291,2.56692 z M 796,457.33333 V 284 h 19.33333 19.33334 l 0.0699,21 c 0.067,20.10929 0.16491,20.85862 2.30911,17.66667 4.98825,-7.42573 18.81693,-20.73669 27.26971,-26.24877 40.72064,-26.55407 100.59821,-20.40254 135.31489,13.90159 30.95942,30.59153 42.62502,83.32674 28.90542,130.66998 -10.4789,36.1607 -36.28802,64.25555 -69.36157,75.50459 -19.40427,6.59982 -44.30839,7.66746 -63.75046,2.733 -20.23578,-5.1359 -42.40166,-19.59534 -54.75896,-35.72082 l -5.99807,-7.82709 v 77.49376 77.49376 H 815.33333 796 Z m 138.0532,28.64279 c 21.12658,-5.38049 41.27008,-21.64989 50.32071,-40.64279 7.51587,-15.77215 9.4427,-24.8656 9.46451,-44.66666 0.0224,-20.29478 -1.94988,-29.44737 -9.76861,-45.33334 C 961.05363,308.56941 896.79,298.90808 859.3461,336.58249 848.99814,346.99415 843.16808,356.88238 838.46407,372 c -2.62348,8.43125 -3.10623,12.82374 -3.0773,28 0.0243,12.72468 0.70928,20.53997 2.33737,26.66667 7.92042,29.8055 30.06399,52.5105 57.74403,59.20807 10.51772,2.54492 28.80183,2.59295 38.58503,0.10138 z M 347.33333,568.149 c -1.46666,-0.63827 -4.28751,-2.78557 -6.26855,-4.77178 -9.72911,-9.75453 -7.27037,-26.16259 4.77713,-31.8795 17.85943,-8.47486 36.17532,8.81973 27.62968,26.08903 -1.56403,3.16062 -4.44313,6.90619 -6.39802,8.32349 -3.9042,2.83055 -15.38769,4.13291 -19.74024,2.23876 z m 228.38978,-4.60616 c -36.60263,-10.31333 -38.51024,-62.16336 -2.77889,-75.53217 18.99844,-7.10823 40.3315,1.4108 49.30785,19.69033 4.87913,9.93591 5.24082,24.25098 0.85479,33.83122 -3.58168,7.82335 -12.33668,16.64881 -19.7838,19.94302 -7.61882,3.37017 -19.75136,4.27905 -27.59995,2.0676 z M 1671.3333,527.08716 c -44.8637,-5.75701 -79.8552,-33.62514 -94.2426,-75.05719 -6.7231,-19.36088 -9.489,-48.95184 -6.4917,-69.45077 7.0521,-48.22963 34.9847,-81.7746 79.4668,-95.43381 11.0789,-3.40202 13.6543,-3.66994 35.9342,-3.73836 25.5379,-0.0784 31.8646,0.93164 48.8771,7.8033 13.4452,5.43079 22.6641,11.69965 34.4943,23.45634 9.7082,9.64792 12.4415,13.4153 18.3794,25.33333 3.8364,7.7 8.1841,18.8 9.6615,24.66667 3.0565,12.1368 4.7595,36.41489 3.3473,47.71807 L 1799.8081,420 h -95.1535 -95.1536 l 0.7033,5 c 2.8609,20.33821 9.6942,35.16509 21.6775,47.0356 14.3042,14.16966 29.0942,20.59937 50.7849,22.07794 30.1189,2.05308 58.0168,-12.65582 68.0826,-35.89595 l 3.2507,-7.50541 21,-0.0228 c 15.9318,-0.0173 20.9961,0.37948 20.9837,1.64391 -0.033,3.35208 -8.9043,21.88442 -14.2216,29.70829 -11.4404,16.83347 -31.4048,31.92048 -51.1432,38.64876 -17.3949,5.92944 -42.1296,8.59826 -59.2856,6.39678 z M 1760,380.7355 c 0,-16.38812 -10.6609,-38.29921 -23.4622,-48.22156 -15.784,-12.23411 -29.6021,-16.66365 -51.8711,-16.62779 -21.3556,0.0344 -37.8499,6.64952 -52.165,20.92103 -11.5527,11.5174 -21.835,33.87301 -21.835,47.47295 V 388 H 1685.3333 1760 Z m 398.6008,145.84994 c -22.3952,-3.29724 -36.7857,-14.42295 -44.3326,-34.27467 -2.8525,-7.50334 -2.9134,-9.13567 -3.3027,-88.6441 l -0.3966,-81 H 2095.2844 2080 V 306 289.33333 h 15.3333 15.3334 v -30 -30 H 2130 h 19.3333 v 30 30 H 2180.6667 2212 V 306 322.66667 h -31.3944 -31.3943 L 2149.6056,399 c 0.4347,84.13188 0.2264,82.02815 8.8408,89.27676 5.697,4.7937 14.5948,6.38991 35.6192,6.38991 H 2212 V 511.33333 528 l -23,-0.16259 c -12.65,-0.0894 -26.3296,-0.65281 -30.3992,-1.25197 z M 1412,404.66667 V 285.33333 h 20 20 l 0.01,19 v 19 l 2.8426,-4.66306 c 12.5613,-20.60591 36.0942,-34.34708 62.9971,-36.78496 L 1528,280.96552 v 20.66459 20.6646 l -15,0.7318 c -34.1201,1.66461 -52.488,16.35131 -59.0228,47.19377 -1.5481,7.30627 -1.9355,23.45407 -1.954,81.44639 L 1452,524 h -20 -20 z m 520.0377,117.81255 c -10.8496,-1.79801 -25.0097,-6.25708 -34.0377,-10.71856 -22.2533,-10.99723 -38.3061,-31.61009 -41.7575,-53.61929 l -1.1721,-7.4747 h 20.3588 20.3589 L 1896.7234,455 c 2.6177,12.12737 11.2245,22.46788 23.6624,28.42858 20.875,10.00406 50.6565,9.06969 66.037,-2.07185 11.1112,-8.04893 16.0583,-20.35073 12.9707,-32.25379 -3.7074,-14.29254 -14.4897,-20.54732 -55.8234,-32.38302 -16.5159,-4.72925 -33.8257,-10.18601 -38.4662,-12.12612 -24.8745,-10.39967 -39.3365,-25.54313 -43.6047,-45.65943 -7.164,-33.76384 11.9143,-62.92387 49.1675,-75.14982 11.0565,-3.62857 15.0561,-4.23865 31.4639,-4.79928 22.9808,-0.78522 36.0904,1.49114 52.3233,9.08545 14.3029,6.69145 28.4111,20.26958 34.5609,33.26261 3.1927,6.74526 8.3185,25.19648 8.3185,29.94379 0,0.39759 -8.9332,0.72288 -19.8516,0.72288 h -19.8516 l -0.9204,-5 c -3.6111,-19.61629 -19.51,-32.60642 -42.8559,-35.01508 -24.6135,-2.53946 -45.7971,5.98048 -52.0443,20.93196 -2.6717,6.39438 -2.2914,18.24467 0.7786,24.26248 6.5184,12.7771 15.6325,17.2481 64.0786,31.43425 31.3985,9.19425 47.9882,17.57145 58.5428,29.56219 20.5475,23.34312 17.225,63.09097 -7.0167,83.94396 -20.0045,17.20806 -55.1109,25.50414 -86.1551,20.35946 z M 346.1391,503.94876 c -8.96724,-2.68342 -15.34297,-13.78021 -13.51523,-23.5229 1.88259,-10.03507 13.60762,-17.80482 23.94269,-15.86594 6.15806,1.15526 13.49959,7.58047 15.46456,13.53437 3.40428,10.31509 -3.07585,23.07035 -13.14081,25.86589 -5.66129,1.57242 -7.46386,1.57081 -12.75121,-0.0114 z M 186.67619,472.54269 c -19.13222,-8.2968 -21.71768,-32.85927 -4.88576,-46.41594 4.74818,-3.82426 5.88749,-4.12675 15.5429,-4.12675 9.65542,0 10.79472,0.30249 15.54291,4.12675 16.96188,13.66135 14.20483,38.37471 -5.18494,46.47628 -6.20067,2.5908 -14.95964,2.56565 -21.01511,-0.0603 z M 300.71856,459.92141 C 277.61964,456.34922 261.25052,448.02403 244.61325,431.38675 224.46193,411.23543 215.70574,390.21794 215.70574,362 c 0,-28.21794 8.75619,-49.23543 28.90751,-69.38675 20.15132,-20.15132 41.16881,-28.90751 69.38675,-28.90751 28.21794,0 49.23543,8.75619 69.38675,28.90751 20.15132,20.15132 28.90751,41.16881 28.90751,69.38675 0,17.91133 -3.07681,30.6546 -11.19881,46.38229 -7.91771,15.33209 -25.38107,32.79545 -40.71316,40.71316 -18.2247,9.41149 -41.50045,13.63487 -59.66373,10.82596 z M 442,426.58538 c -5.96415,-1.75065 -14.01925,-9.01418 -16.80958,-15.15773 -6.44061,-14.18043 0.45473,-31.23921 15.10009,-37.35692 13.53612,-5.65436 29.47791,0.83646 35.84834,14.59594 9.94002,21.46943 -10.98768,44.71425 -34.13885,37.91871 z m 205.08348,-74.68447 c -19.6417,-9.72254 -19.70249,-39.3612 -0.10135,-49.40916 21.55888,-11.05153 46.09133,8.60707 39.85213,31.93474 -4.53023,16.93802 -23.75825,25.39065 -39.75078,17.47442 z m -263.2071,-73.6711 C 366.78652,269.20407 365.51247,244.31149 381.59563,233.66815 386.24683,230.59014 388.56423,230 396,230 c 7.43577,0 9.75317,0.59014 14.40437,3.66815 11.59489,7.67314 14.88302,23.23422 7.44652,35.24073 -7.3108,11.80356 -21.76514,15.76912 -33.97451,9.32093 z M 273.34,253.67474 c -3.75114,-1.32358 -8.78417,-4.90558 -13.45317,-9.57458 -9.41791,-9.41791 -12.51623,-17.64463 -11.57894,-30.74462 2.54354,-35.54928 46.46889,-50.17943 70.08977,-23.34469 22.31638,25.35274 3.45208,66.23112 -30.39766,65.87086 -4.76667,-0.0507 -11.36367,-1.04387 -14.66,-2.20697 z m 227.32667,-68.1948 c -20.19407,-9.32016 -20.41922,-36.66963 -0.38645,-46.94303 16.19164,-8.30356 37.11771,4.73948 37.02383,23.07664 -0.0977,19.07634 -19.55423,31.75078 -36.63738,23.86639 z"
         id="path4" />
      <path
         style="fill:#717172"
         d="m 525.08595,665.56333 c -13.86665,-4.94968 -25.49884,-16.91468 -29.83647,-30.69011 -2.94522,-9.35343 -2.1249,-25.09047 1.76342,-33.82952 3.88193,-8.72466 13.90013,-18.97982 22.82105,-23.36081 6.67114,-3.27615 8.97194,-3.68289 20.83272,-3.68289 11.86077,0 14.16157,0.40674 20.83271,3.68289 8.92092,4.38099 18.93913,14.63615 22.82105,23.36081 3.88833,8.73905 4.70865,24.47609 1.76342,33.82952 -4.33763,13.77543 -15.96982,25.74043 -29.83647,30.69011 -3.57774,1.27707 -10.23572,2.22999 -15.58071,2.22999 -5.345,0 -12.00298,-0.95292 -15.58072,-2.22999 z M 363.27599,650.85276 C 349.84949,644.50088 342.20325,632.58026 342.20325,618 c 0,-13.80835 6.63514,-25.0642 19.13008,-32.45228 5.23023,-3.09256 7.45402,-3.54772 17.33334,-3.54772 9.87931,0 12.10311,0.45516 17.33333,3.54772 8.02854,4.74716 12.58662,9.76369 16.16022,17.78561 5.67171,12.73168 3.25017,27.97474 -6.22533,39.18715 -5.5145,6.52533 -18.1308,12.14408 -27.26822,12.14408 -5.29989,0 -9.56755,-1.05697 -15.39068,-3.8118 z M 796,457.33333 V 284 h 19.33333 19.33334 v 21.56193 21.56192 l 4.11106,-6.20658 C 849.77158,304.31959 873.48689,288.65651 896,283.12409 c 14.48685,-3.56003 42.13669,-3.21033 56.66667,0.7167 21.93631,5.92874 42.7635,19.58635 56.01163,36.73013 28.2848,36.60184 33.3517,96.0565 11.9568,140.29891 C 997.17866,509.37527 944.18697,532.81945 892,517.7796 869.44726,511.28009 851.45734,498.34208 836.68765,478 c -1.70121,-2.34306 -1.94132,6.75838 -1.97858,75 l -0.0424,77.66667 H 815.33333 796 Z m 138.60621,28.69954 c 13.56933,-3.6111 24.09302,-9.83876 35.03945,-20.73547 15.72645,-15.65502 23.09426,-33.21485 24.60049,-58.63073 1.78103,-30.05299 -8.73667,-58.70623 -27.41672,-74.69102 -7.6561,-6.55144 -22.28896,-13.97621 -32.77623,-16.63079 -10.06067,-2.5466 -26.93821,-2.54937 -37.72462,-0.006 -30.04628,7.08421 -53.85383,32.80275 -59.85674,64.66133 -2.53604,13.45925 -1.78418,36.17594 1.61073,48.66667 7.78148,28.62998 29.73341,50.66202 57.25076,57.45967 9.27864,2.29211 30.49843,2.24161 39.27288,-0.0935 z M 347.33333,567.45114 C 333.98192,561.51706 331.32518,545.0131 342.04829,534.61986 346.47598,530.32838 347.42027,530 355.33333,530 c 7.91307,0 8.85736,0.32838 13.28504,4.61986 5.96982,5.78617 8.13801,12.99073 5.95883,19.80026 -3.85025,12.03129 -16.2013,17.93893 -27.24387,13.03102 z m 230.97929,-3.50517 c -30.40231,-7.54646 -41.40518,-44.85341 -19.64595,-66.61264 7.8214,-7.8214 16.33449,-11.23827 28,-11.23827 7.87266,0 11.40626,0.68703 16.61041,3.22955 25.04792,12.23729 30.60939,44.52746 10.97877,63.74336 -9.49623,9.29562 -24.28583,13.77161 -35.94323,10.878 z m 1092.35408,-37.3684 c -11.174,-1.19307 -29.2193,-6.4961 -39.3334,-11.559 -30.1773,-15.10622 -51.0995,-43.68117 -58.8477,-80.37285 -3.3668,-15.94328 -3.3713,-47.45459 -0.01,-61.97905 10.4647,-45.20345 38.0598,-74.57074 81.0744,-86.28129 9.5882,-2.61037 14.2298,-3.0165 33.7821,-2.95593 18.9609,0.0588 24.3625,0.53982 33.039,2.94248 22.2503,6.16142 43.3919,19.66085 56.3784,35.99896 17.2256,21.67119 26.8435,56.84536 23.9594,87.62316 L 1799.7725,420 h -95.28 -95.28 l 0.8074,5 c 2.1014,13.01215 3.9659,19.15519 8.8868,29.2789 14.7221,30.28788 50.4903,46.11983 86.8091,38.42397 19.8567,-4.20758 37.4654,-17.59272 45.5074,-34.59215 l 3.5216,-7.44405 h 20.653 20.653 l -0.9168,3.66666 c -1.4933,5.97244 -6.8763,17.3919 -11.9012,25.24704 -9.6146,15.03012 -23.0156,26.91465 -39.9849,35.46025 -21.1951,10.67367 -45.0916,14.47208 -72.5812,11.53695 z m 89.8026,-146.24424 c -2.9867,-34.10872 -25.5044,-57.8608 -60.4693,-63.78408 -27.7219,-4.69628 -53.2128,3.58709 -70.4077,22.8793 -10.2115,11.45709 -18.9256,31.80158 -18.9256,44.18492 V 388 h 75.237 75.237 z m 400.1974,146.24269 c -27.6873,-3.75795 -42.6931,-16.98714 -48.0761,-42.38405 -1.4879,-7.01978 -1.8824,-24.70377 -1.9008,-85.19197 l -0.023,-76.33333 H 2095.3333 2080 V 306 289.33333 h 15.3333 15.3334 v -30 -30 H 2130 h 19.3333 v 29.97543 29.97543 l 31,0.3579 31,0.35791 v 16 16 l -31.051,0.35803 -31.0511,0.35804 0.3844,76.9753 c 0.4243,84.96295 0.043,81.19096 8.9643,88.69764 5.5629,4.68094 14.5887,6.27766 35.4857,6.27766 H 2212 V 511.33333 528 l -21.6667,-0.16907 c -11.9166,-0.093 -25.2666,-0.6577 -29.6666,-1.25491 z M 1412.3262,405 1412.6667,286 H 1432 h 19.3333 l 0.3727,18.59051 0.3726,18.59051 4.6333,-6.88002 c 12.6268,-18.74979 32.4666,-30.44731 57.0607,-33.64303 5.2584,-0.68327 10.6107,-1.26083 11.8941,-1.28347 C 1527.7903,281.337 1528,283.19067 1528,302 v 20.66667 l -11.6667,0.0197 c -33.9135,0.0573 -54.6673,15.21473 -62.1606,45.39882 -1.8761,7.55698 -2.1727,18.79771 -2.1727,82.33333 V 524 h -20.0072 -20.0071 z m 521.7868,117.5245 c -38.936,-5.6788 -67.0981,-26.84132 -75.9858,-57.09983 -1.17,-3.98311 -2.1272,-8.93311 -2.1272,-11 v -3.758 l 19.6667,0.002 19.6666,0.002 2.2955,7.81178 c 6.1422,20.90314 30.0986,33.72145 59.4625,31.81646 26.5414,-1.72187 43.5182,-15.14343 43.384,-34.2986 -0.1274,-18.20118 -12.243,-27.06931 -51.8347,-37.94114 -29.5135,-8.10435 -40.3763,-11.87488 -53.1019,-18.43207 -20.7898,-10.71241 -31.6607,-25.02189 -34.6212,-45.57229 -4.7479,-32.95621 16.2611,-60.58824 54.4759,-71.64946 9.1024,-2.63466 13.6321,-3.07006 31.9399,-3.07006 18.315,0 22.8359,0.43489 31.9532,3.0737 31.9347,9.24283 51.9187,31.14494 56.5016,61.92465 L 2036.9296,352 h -19.7981 c -18.7831,0 -19.7982,-0.13415 -19.7982,-2.61665 0,-1.43916 -1.2783,-6.03327 -2.8407,-10.20913 -5.4908,-14.67552 -19.3066,-24.42994 -38.5318,-27.20475 -28.2622,-4.07913 -51.9078,7.28979 -56.533,27.18127 -1.6356,7.03423 1.5713,17.42743 7.4316,24.0851 7.1593,8.13336 19.1417,13.7435 45.8073,21.44689 42.4681,12.26856 57.2484,18.79469 69.3712,30.63028 22.3488,21.8195 22.2069,59.72755 -0.3104,82.89616 -19.054,19.60513 -53.7979,29.24748 -87.6145,24.31533 z M 346.90552,503.6703 c -18.93837,-6.17441 -18.52147,-33.05494 0.5925,-38.2018 18.0871,-4.87035 31.79385,15.16919 21.31466,31.16245 -3.80144,5.80173 -14.83183,9.34609 -21.90716,7.03935 z M 185.86734,471.47462 c -13.28667,-6.18672 -18.8465,-21.4483 -12.68062,-34.80795 4.38355,-9.49786 13.57313,-15.33334 24.14661,-15.33334 28.18325,0 36.93713,38.28108 11.466,50.14129 -3.73963,1.7413 -8.89933,3.166 -11.466,3.166 -2.56666,0 -7.72636,-1.4247 -11.46599,-3.166 z m 117.22115,-11.59049 c -40.37889,-3.91655 -74.96019,-34.45032 -85.03143,-75.07903 -3.00675,-12.1296 -3.00675,-33.4806 0,-45.6102 8.9957,-36.28982 36.84802,-64.14214 73.13784,-73.13784 12.1296,-3.00675 33.4806,-3.00675 45.6102,0 36.28982,8.9957 64.14214,36.84802 73.13784,73.13784 3.00675,12.1296 3.00675,33.4806 0,45.6102 -12.0795,48.73027 -56.52722,79.96052 -106.85445,75.07903 z M 442.1139,426.34452 c -7.29083,-1.9275 -15.80627,-10.76916 -18.03362,-18.72445 -4.25099,-15.18304 4.66816,-30.3754 20.25305,-34.49787 15.29428,-4.0456 31.23378,6.96072 33.90319,23.41034 1.99794,12.31189 -7.66102,26.82849 -19.90183,29.91076 -7.14297,1.79862 -9.08861,1.78677 -16.22079,-0.0988 z M 647.86711,352.01205 C 632.50981,343.8951 627.90461,325.9864 637.46361,311.55494 642.51926,303.92231 650.1692,300 660,300 c 23.52483,0 36.38473,27.32037 21.07013,44.76273 -8.51791,9.70137 -22.70375,12.79861 -33.20302,7.24932 z m -260.35076,-72.6318 c -6.31114,-2.24986 -12.56285,-7.94229 -15.0139,-13.67076 -2.18828,-5.11435 -2.38965,-14.73662 -0.41763,-19.95602 3.23627,-8.5655 14.63154,-16.36157 23.91518,-16.36157 9.28364,0 20.67891,7.79607 23.91518,16.36157 1.95963,5.18659 1.77498,14.8115 -0.38324,19.97685 -3.4368,8.22543 -15.09609,15.71144 -24.19861,15.53705 -1.46666,-0.0281 -4.98431,-0.8773 -7.81698,-1.88712 z M 276.48628,254.62759 C 264.72521,250.99484 252.44955,238.20863 249.20319,226.20978 245.78287,213.56797 250.25348,197.74652 260,188 c 8.16214,-8.16214 15.86476,-11.27228 28,-11.30575 16.27889,-0.0449 28.36171,7.39026 36.30915,22.34282 2.42448,4.56149 2.99219,7.77988 2.99219,16.96293 0,12.44731 -2.12454,18.19641 -10.06739,27.24281 -8.47055,9.64743 -28.37119,15.20761 -40.74767,11.38478 z M 505.3247,186.81255 c -11.02757,-3.54694 -17.80942,-10.84503 -19.39239,-20.86857 -3.18902,-20.19325 17.49092,-35.90107 36.12285,-27.43776 14.32193,6.50555 19.33557,24.4667 10.55164,37.80077 -5.28944,8.02941 -18.80259,13.23294 -27.2821,10.50556 z"
         id="path3" />
      <path
         style="fill:#4c4c4e"
         d="m 526.46619,665.44703 c -14.72557,-4.70974 -25.3336,-15.19556 -30.46698,-30.11598 -10.31107,-29.96966 12.76416,-61.99772 44.66746,-61.99772 31.90329,0 54.97853,32.02806 44.66745,61.99772 -5.20807,15.13751 -15.79702,25.47693 -30.90855,30.18016 -9.90284,3.08211 -18.18152,3.06311 -27.95938,-0.0642 z M 373.33333,653.78411 c -10.7679,-1.8568 -21.09802,-9.05292 -26.18186,-18.23868 -3.29454,-5.95276 -3.80779,-8.31469 -3.81259,-17.54543 -0.008,-15.65871 6.00336,-25.71833 19.69653,-32.96006 7.96471,-4.2122 23.2978,-4.2122 31.26251,0 13.69317,7.24173 19.70468,17.30135 19.69653,32.96006 -0.005,9.23074 -0.51804,11.59267 -3.81259,17.54543 -6.90027,12.46779 -23.28488,20.57757 -36.84853,18.23868 z M 796,456.66667 V 284 h 19.33333 19.33334 v 21.46545 21.46544 l 6.23943,-8.30029 c 29.96028,-39.85597 90.4235,-50.07095 138.42723,-23.38662 12.09063,6.72094 29.05007,23.62923 36.69667,36.58593 11.7192,19.8577 17.3156,42.52428 17.2858,70.01141 -0.028,25.923 -6.244,49.46268 -18.3338,69.43011 -7.0661,11.67039 -25.72497,29.93241 -36.90718,36.12224 -42.97963,23.79104 -95.22057,18.03647 -127.42458,-14.03638 -5.53572,-5.51318 -11.36331,-11.82396 -12.95019,-14.02396 l -2.88523,-4 -0.0741,77 -0.0741,77 H 815.33333 796 Z m 139.94305,29.11579 c 30.51186,-8.46054 52.07197,-33.80112 57.45348,-67.52768 1.02217,-6.4061 1.36712,-15.89618 0.8966,-24.66667 -2.2259,-41.49082 -25.43396,-70.81784 -62.48706,-78.96221 -10.79339,-2.37242 -32.92706,-1.00542 -43.43644,2.68268 -23.22141,8.14919 -40.31791,25.97922 -49.25749,51.37088 -3.48922,9.91067 -3.75185,12.09556 -3.76484,31.32054 -0.013,19.22764 0.25548,21.48876 3.85565,32.47314 4.52985,13.82092 13.6568,28.53607 22.56009,36.37306 6.43586,5.66507 20.66016,13.68871 28.96661,16.33949 13.27373,4.23594 31.23425,4.473 45.2134,0.59677 z m -585.25892,82.56429 c -17.31982,-3.21235 -19.564,-29.23038 -3.1914,-36.99969 16.22311,-7.69837 32.90106,10.18091 25.00955,26.81103 -3.65973,7.71231 -12.61705,11.89521 -21.81815,10.18866 z M 574,562.29503 c -18.38383,-7.51233 -26.96428,-20.90738 -25.70842,-40.13375 0.72173,-11.04914 3.78876,-17.88345 11.26211,-25.09548 18.6581,-18.00571 50.14678,-12.7997 62.1034,10.26753 3.85898,7.44491 4.70083,22.22717 1.76859,31.05531 -2.83747,8.54281 -10.56939,17.36605 -18.92332,21.59422 -7.55059,3.82158 -23.7952,5.05297 -30.50236,2.31217 z M 1673.9545,526.6191 c -35.6731,-3.54189 -65.8151,-21.09326 -83.6808,-48.72652 -11.5332,-17.83848 -17.53,-36.49561 -19.7782,-61.53355 -5.43,-60.47323 23.6045,-110.02076 74.3704,-126.91345 39.8196,-13.25024 83.5472,-6.97753 114.7217,16.45676 17.7105,13.31317 32.5504,36.91512 37.7229,59.99561 2.5493,11.37576 4.1184,32.00482 3.2276,42.43538 l -0.8824,10.33334 h -95.1612 -95.1612 l 0.023,3 c 0.013,1.65 0.9092,7.18278 1.9921,12.29508 7.7793,36.72505 37.8222,60.74727 75.8946,60.68521 29.6571,-0.0483 52.3717,-12.66224 63.4972,-35.26128 l 4.2923,-8.71901 h 20.5735 20.5735 l -0.8568,3 c -1.9947,6.98419 -11.4038,24.93885 -17.0768,32.58621 -21.3495,28.78 -62.1057,44.55475 -104.2916,40.36622 z m 87.3788,-142.00864 c 0,-1.86425 -0.9511,-8.01425 -2.1136,-13.66667 -5.4414,-26.45764 -24.1036,-45.82249 -51.2583,-53.18836 -12.6816,-3.43998 -33.8828,-3.17207 -46.0168,0.58148 -16.1879,5.0076 -31.1723,16.71351 -40.5311,31.66309 -4.4673,7.136 -9.9414,23.06553 -11.1112,32.33333 L 1609.5871,388 h 75.8731 75.8731 z m 401.2863,141.96726 c -11.4204,-1.21352 -23.6969,-5.35724 -30.7725,-10.38681 -7.0036,-4.97842 -14.0769,-15.23797 -17.4813,-25.35623 -2.9225,-8.68598 -2.9798,-10.18684 -3.4031,-89.16801 l -0.4306,-80.33334 H 2095.2661 2080 V 306 290.66667 h 15.3333 15.3334 v -30 -30 H 2130 h 19.3333 v 30 30 H 2180.6667 2212 V 306 321.33333 h -31.3744 -31.3745 L 2149.6256,399 2150,476.66667 l 3.3333,5.88837 c 5.6095,9.90913 10.0407,11.36203 36.3334,11.91273 L 2212,494.93555 V 511.46777 528 l -19.6667,-0.17735 c -10.8166,-0.0975 -24.1878,-0.65777 -29.7137,-1.24493 z M 1412,405.33333 V 286.66667 h 19.3333 19.3334 v 18.66666 c 0,10.26667 0.5272,18.66667 1.1715,18.66667 0.6444,0 1.9787,-1.94848 2.9651,-4.32995 2.7207,-6.56834 19.4176,-22.52806 28.5768,-27.31526 9.751,-5.09642 25.0097,-9.30408 36.2866,-10.00614 L 1528,281.82984 v 19.50368 19.50368 l -15.6667,1.47462 c -31.3217,2.94816 -47.7039,14.09545 -56.1674,38.21942 -4.7438,13.52137 -5.4152,25.30569 -5.4581,95.80209 L 1450.6667,524 H 1431.3333 1412 Z m 526,117.2575 c -25.1369,-2.56187 -48.3286,-12.85488 -62.0757,-27.55066 -9.6972,-10.36629 -14.3539,-18.22738 -17.4837,-29.51419 -4.399,-15.86426 -5.5866,-14.85931 17.5594,-14.85931 19.8432,0 20.0002,0.0235 20.0293,3 0.049,5.06546 5.1597,14.70222 11.0417,20.82184 11.0536,11.50037 27.9238,16.95436 48.9231,15.81645 17.9477,-0.97255 25.641,-3.84646 34.8963,-13.03581 8.5159,-8.45531 11.2484,-15.37078 9.9155,-25.09509 -2.3309,-17.00549 -16.2131,-25.11225 -65.4391,-38.21438 -49.711,-13.2312 -70.1186,-30.11002 -74.3075,-61.45889 -4.8224,-36.08848 22.9949,-65.68258 68.274,-72.63507 12.0252,-1.84644 35.8635,-0.8001 47.7635,2.09649 21.9265,5.33718 42.225,20.5785 50.659,38.03779 4.4737,9.26102 8.2442,22.19511 8.2442,28.28013 V 352 h -19.3333 -19.3334 l -10e-4,-3.66667 c 0,-5.32885 -6.9542,-18.98685 -12.1702,-23.90756 -14.021,-13.2271 -42.2906,-17.45361 -63.5467,-9.50069 -20.4097,7.63623 -28.6305,28.74612 -17.6304,45.2722 7.126,10.70583 19.2284,16.51249 56.6817,27.1955 26.7666,7.6348 41.5157,13.59503 52.981,21.41 15.317,10.44033 23.1234,24.10684 24.5734,43.01964 3.4413,44.888 -41.6621,76.73655 -100.2211,70.76841 z M 343.33333,501.51925 C 335.62758,496.75945 334,493.8001 334,484.54891 c 0,-8.05629 0.26466,-8.76913 5.02222,-13.52669 4.7719,-4.7719 5.45199,-5.02222 13.64445,-5.02222 8.19246,0 8.87254,0.25032 13.64444,5.02222 4.76156,4.76157 5.02222,5.4653 5.02222,13.55925 0,7.26596 -0.49629,9.06818 -3.33333,12.10446 -7.04833,7.54334 -17.09298,9.51155 -24.66667,4.83332 z M 194,474.04142 c -0.73333,-0.26116 -2.97233,-0.83598 -4.97555,-1.27739 -4.58884,-1.01115 -12.495,-7.87784 -15.3079,-13.29529 -3.44917,-6.64286 -2.82862,-18.00351 1.37523,-25.17684 4.09222,-6.98285 14.3487,-12.95857 22.24155,-12.95857 7.89286,0 18.14934,5.97572 22.24156,12.95857 4.17483,7.12381 4.82582,18.55445 1.42615,25.04143 -2.29691,4.38279 -8.15257,10.24535 -12.33437,12.34892 -3.03254,1.52545 -12.65949,3.07397 -14.66667,2.35917 z m 102.10025,-15.40544 c -23.94397,-5.04539 -45.47161,-18.27215 -59.21567,-36.38262 -8.66741,-11.42099 -12.87518,-19.53529 -17.0885,-32.95366 -4.51469,-14.37813 -4.51469,-40.22127 0,-54.5994 4.21332,-13.41837 8.42109,-21.53267 17.0885,-32.95366 11.88172,-15.65647 29.24902,-27.49268 49.81572,-33.95056 14.37813,-4.51469 40.22127,-4.51469 54.5994,0 20.5667,6.45788 37.934,18.29409 49.81572,33.95056 8.66741,11.42099 12.87518,19.53529 17.0885,32.95366 4.51469,14.37813 4.51469,40.22127 0,54.5994 -6.45788,20.5667 -18.29409,37.934 -33.95056,49.81572 -18.61621,14.12788 -33.92731,19.58649 -56.92003,20.29275 -8.43333,0.25904 -17.98822,-0.0884 -21.23308,-0.77219 z m 142.83373,-34.12562 c -6.02127,-3.06681 -13.38225,-11.99032 -14.41004,-17.4689 -3.57658,-19.06483 7.78019,-33.70813 26.14273,-33.70813 10.13544,0 16.96766,3.40501 22.315,11.12123 3.24128,4.67716 3.685,6.54779 3.685,15.53523 0,9.09033 -0.40426,10.74779 -3.66362,15.02103 -6.26144,8.20918 -11.21524,10.88724 -20.97321,11.33828 -6.16374,0.28491 -9.97777,-0.25061 -13.09586,-1.83874 z m 212.39935,-71.45243 c -6.42808,-2.24695 -12.48095,-7.46681 -15.4838,-13.35287 -2.2366,-4.3841 -2.69082,-7.27353 -2.28169,-14.51427 0.43352,-7.67216 1.12604,-9.80058 4.57549,-14.06248 5.30857,-6.55893 14.19557,-11.05319 21.85667,-11.05319 7.6611,0 16.5481,4.49426 21.85667,11.05319 3.44945,4.2619 4.14197,6.39032 4.57549,14.06248 0.40913,7.24074 -0.0451,10.13017 -2.28169,14.51427 -5.98452,11.73063 -20.5285,17.64839 -32.81714,13.35287 z M 384.42152,277.40872 c -10.36045,-4.70379 -16.17948,-18.68866 -12.46252,-29.95115 7.61232,-23.06555 40.46968,-23.06555 48.082,0 5.28478,16.01304 -6.90512,32.48386 -24.041,32.48386 -3.3,0 -8.51032,-1.13972 -11.57848,-2.53271 z M 279.33333,254.83744 c -18.58256,-4.85711 -30.33556,-19.59563 -30.43868,-38.17077 -0.19686,-35.46055 42.30507,-53.30148 67.27987,-28.24191 14.91069,14.96129 14.85826,40.33733 -0.11426,55.30985 -9.04048,9.04048 -25.53725,14.02758 -36.72693,11.10283 z m 221.33334,-70.19271 c -9.902,-5.33523 -14,-11.96995 -14,-22.66617 0,-8.2035 1.2086,-11.38445 6.49625,-17.0976 5.13859,-5.55209 10.58492,-7.92858 18.17041,-7.92858 7.5855,0 13.03183,2.37649 18.17042,7.92858 5.31812,5.74608 6.49671,8.8989 6.49127,17.36472 -0.006,9.04752 -2.61709,14.21729 -10.04156,19.88021 -6.18588,4.7182 -18.86147,5.98083 -25.28679,2.51884 z"
         id="path2" />
    </g>
  </g>
</svg>
