<?xml version="1.0" encoding="UTF-8" standalone="no"?>
<!-- Created with Inkscape (http://www.inkscape.org/) -->

<svg
   version="1.1"
   id="svg1"
   width="2080.9529"
   height="570.13702"
   viewBox="0 0 2080.9529 570.13702"
   sodipodi:docname="porest_dark.svg"
   inkscape:version="1.4.2 (f4327f4, 2025-05-13)"
   xmlns:inkscape="http://www.inkscape.org/namespaces/inkscape"
   xmlns:sodipodi="http://sodipodi.sourceforge.net/DTD/sodipodi-0.dtd"
   xmlns="http://www.w3.org/2000/svg"
   xmlns:svg="http://www.w3.org/2000/svg">
  <defs
     id="defs1" />
  <sodipodi:namedview
     id="namedview1"
     pagecolor="#ffffff"
     bordercolor="#000000"
     borderopacity="0.25"
     inkscape:showpageshadow="2"
     inkscape:pageopacity="0.0"
     inkscape:pagecheckerboard="0"
     inkscape:deskcolor="#d1d1d1"
     inkscape:zoom="0.37"
     inkscape:cx="712.16216"
     inkscape:cy="186.48649"
     inkscape:window-width="1920"
     inkscape:window-height="1010"
     inkscape:window-x="1913"
     inkscape:window-y="-6"
     inkscape:window-maximized="1"
     inkscape:current-layer="svg1" />
  <g
     inkscape:label="Image"
     id="g1"
     transform="translate(-177.69132,-135.9111)">
    <g
       id="g2"
       transform="translate(24.844293,19.199892)">
      <path
         id="path3"
         style="display:inline;fill:#90a882"
         inkscape:label="초록"
         d="m 1217.5228,284.80496 c -18.9386,-0.13474 -38.1402,3.70336 -55.666,11.80078 -43.2809,19.99702 -67.6833,63.28166 -65.4316,116.06055 2.3504,55.09364 30.5511,95.51996 77.5742,111.19921 6.6,2.20069 15.9012,4.55673 20.6679,5.23633 19.9545,2.84501 40.42,1.22858 59.2774,-4.68164 54.9078,-17.209 87.2445,-67.92553 81.9785,-128.57226 -2.8408,-32.7161 -14.017,-57.90374 -34.875,-78.59766 -21.128,-20.96169 -51.9611,-32.22075 -83.5254,-32.44531 z m -2.9805,34.27734 c 35.8121,-0.69197 68.0771,22.24707 78.0664,58.91797 3.4629,12.71245 4.1941,37.87023 1.4922,51.36914 -6.0725,30.33874 -25.7734,53.35751 -53.039,61.9707 -10.523,3.32421 -28.8948,5.18362 -37.7285,3.81836 -32.6772,-5.05032 -57.0355,-28.50686 -64.2012,-61.82422 -3.2358,-15.04524 -2.9185,-41.84003 0.6523,-55.06835 7.3956,-27.3975 24.7088,-46.51915 49.627,-54.8086 8.4118,-2.79831 16.8665,-4.21531 25.1308,-4.375 z" />
      <path
         id="path2"
         style="display:inline;fill:#eeeeee;fill-opacity:1"
         inkscape:label="검정"
         d="m 2110.7181,230.66629 -0.3594,29.66796 -0.3593,29.66602 -15,0.37695 -15,0.37696 v 15.24609 15.24609 l 15,0.37696 15,0.37695 0.7461,80.66602 c 0.7912,85.69672 0.7134,84.68678 7.3554,97.53125 7.785,15.05478 21.8002,23.55897 43.4473,26.36718 4.6484,0.60303 17.9012,1.17263 29.4512,1.26563 l 21,0.16992 v -16.55273 -16.55079 l -21.666,-0.44921 c -25.7788,-0.53309 -31.5307,-2.41232 -37.0879,-12.11524 l -3.2461,-5.66601 v -77.33204 -77.33398 l 31,-0.35742 31,-0.35938 v -15.2832 -15.28516 l -31,-0.35742 -31,-0.35742 -0.3575,-29.66602 -0.3593,-29.66796 h -19.2832 z m -168.7187,48.43359 c -25.7655,1.04902 -41.4727,6.20581 -58.3106,19.14648 -32.5405,25.00892 -30.8465,74.45311 3.3067,96.52735 11.5119,7.44051 24.7076,12.48322 55.8886,21.35156 46.112,13.11495 57.6517,21.09794 57.6407,39.875 -0.012,19.65546 -17.2457,32.93194 -44.5254,34.30078 -29.4049,1.47547 -52.2466,-10.97525 -58.3711,-31.81836 l -2.2949,-7.8125 -19.8379,-0.002 -19.8399,-0.002 0.9063,6.83007 c 3.7231,28.0655 28.2152,52.75571 60.7968,61.28711 6.2191,1.62844 14.9086,3.38617 19.3086,3.90625 h 0 c 34.014,4.02048 65.3077,-4.93201 84.5059,-24.17382 23.2744,-23.33039 23.2715,-61.79628 -0.01,-84.0254 -11.5673,-11.04459 -25.6681,-17.26506 -64.9043,-28.6289 -26.8208,-7.768 -38.5826,-12.71388 -46.2188,-19.43555 -8.1223,-7.14949 -10.4702,-11.99251 -10.6015,-21.86328 -0.09,-6.80101 0.5402,-9.15283 3.9219,-14.62305 8.1169,-13.12957 21.1159,-18.65751 43.3046,-18.41601 15.9129,0.17319 25.3732,2.95594 35.043,10.30859 6.896,5.24344 13.8824,16.54766 15.0527,24.35156 l 0.8731,5.81641 h 19.1816 19.1817 v -4.14062 c 0,-14.16497 -8.9582,-33.18265 -21.3946,-45.41993 -17.3692,-17.09105 -40.8337,-24.63339 -72.6054,-23.33984 z m -1025.52347,1.36328 c -31.64314,1.80602 -61.77628,17.08818 -77.24414,40.05664 l -4.56445,6.77735 v -21.64844 -21.64844 h -19.33398 -19.33399 v 172.66602 172.66796 h 19.33399 19.33398 l 0.0684,-77 c 0.0658,-72.47959 0.20184,-76.80561 2.30469,-73.66796 5.21702,7.78426 20.30542,21.98361 29.35351,27.62304 30.80271,19.19849 72.13757,21.07316 104.9375,4.75977 12.11869,-6.02736 19.4837,-11.51664 29.4121,-21.91992 22.3051,-23.37194 32.7285,-51.35288 32.7285,-87.85938 0,-38.77058 -12.0751,-69.84204 -35.80661,-92.14062 -18.65476,-17.52839 -40.45575,-26.75383 -67.57422,-28.59766 -4.54371,-0.30893 -9.09479,-0.32636 -13.61524,-0.0684 z m 611.52347,0.91016 -8.3321,0.76562 c -27.9758,2.57025 -50.2436,14.90722 -63.5312,35.19531 l -4.8027,7.33204 -0.3692,-19 -0.3711,-19 h -19.2969 -19.2968 v 118.66796 118.66602 h 19.2109 19.209 l 0.6074,-73.66602 c 0.6644,-80.60771 0.8144,-82.2623 8.8555,-98.01367 9.869,-19.33171 26.3036,-28.17516 56.4512,-30.375 l 11.666,-0.85156 v -19.85937 z m 158.2265,1.34179 c -22.622,0.25635 -45.6656,5.81644 -63.1132,16.05274 -11.4645,6.72603 -30.6209,26.49643 -37.3711,38.5664 -12.5616,22.46132 -17.9762,50.10906 -15.3711,78.49024 1.8794,20.47545 5.4552,34.71967 12.2617,48.8418 17.0572,35.39068 49.4401,57.68363 90.0351,61.98242 18.3416,1.94227 33.3164,0.75596 51.0645,-4.04492 33.9669,-9.18802 61.3146,-35.54482 71.5293,-68.9375 l 0.918,-3 h -20.7168 -20.7168 l -3.5215,7.44531 c -4.4479,9.40216 -17.0227,22.93389 -25.6992,27.65625 -15.9807,8.6978 -40.0684,11.20814 -59.5996,6.21289 -20.7317,-5.30228 -39.3378,-20.44131 -47.8868,-38.96484 -4.5189,-9.79133 -9.3937,-29.29951 -8.1386,-32.57032 0.5597,-1.45866 17.6723,-1.77929 95.2773,-1.77929 h 94.5957 l 0.9375,-10.01758 c 1.256,-13.40369 -1.3403,-36.93021 -5.5644,-50.41211 -10.9092,-34.81832 -35.0767,-59.04358 -69.9551,-70.11914 -11.969,-3.80072 -25.3916,-5.55615 -38.9649,-5.40235 z m -768.01754,30.8418 c 35.54029,1.08788 63.77372,23.79159 73.44335,59.77734 3.68035,13.6965 3.268,42.94771 -0.78906,56 -8.98809,28.91628 -28.7631,49.26113 -54.86328,56.44532 -13.41086,3.69141 -32.01987,3.33473 -45.60547,-0.87305 -21.53963,-6.67132 -40.51995,-24.61746 -49.16601,-46.48633 -8.6879,-21.97465 -8.79399,-52.7478 -0.25782,-74.41992 11.90639,-30.22864 37.65082,-48.74467 70.03711,-50.37109 2.43097,-0.12209 4.83182,-0.14479 7.20118,-0.0723 z m 767.38284,1.26758 c 4.7079,0.005 9.5536,0.61522 16.3613,1.82812 14.8137,2.6393 28.6418,9.73349 38.875,19.94532 11.7448,11.72014 17.7058,24.86409 19.834,43.73632 l 0.8633,7.66602 h -75.8946 -75.8925 l 1.1406,-7.66602 c 4.9057,-32.94596 27.9338,-57.74116 59.1758,-63.71875 6.2601,-1.19775 10.8292,-1.79647 15.5371,-1.79101 z" />
    </g>
    <circle
       style="mix-blend-mode:normal;fill:#eeeeee;fill-opacity:1;stroke-width:0.806123"
       id="path42"
       cx="222.62376"
       cy="465.97867"
       r="26.68919"
       inkscape:label="검정1" />
    <circle
       style="mix-blend-mode:normal;fill:#eeeeee;fill-opacity:1;stroke-width:0.900334"
       id="path43"
       cx="312.20911"
       cy="235.50998"
       r="40.145565"
       inkscape:label="검정2" />
    <circle
       style="mix-blend-mode:normal;fill:#eeeeee;fill-opacity:1"
       id="path45"
       cx="420.98862"
       cy="273.80298"
       r="25.675676"
       inkscape:label="검정3" />
    <circle
       style="mix-blend-mode:normal;fill:#eeeeee;fill-opacity:1"
       id="path46"
       cx="475.04266"
       cy="419.07327"
       r="27.702703"
       inkscape:label="검정4" />
    <circle
       style="mix-blend-mode:normal;fill:#eeeeee;fill-opacity:1"
       id="path47"
       cx="537.12378"
       cy="181.12732"
       r="25.675676"
       inkscape:label="검정5" />
    <circle
       style="mix-blend-mode:normal;fill:#eeeeee;fill-opacity:1;stroke-width:1.05128"
       id="path48"
       cx="684.52917"
       cy="346.72189"
       r="27.702702"
       inkscape:label="검정6" />
    <ellipse
       style="mix-blend-mode:normal;fill:#eeeeee;fill-opacity:1;stroke-width:1.03571"
       id="path49"
       cx="377.04269"
       cy="503.53275"
       rx="19.594679"
       ry="19.594595"
       inkscape:label="검정7" />
    <circle
       style="mix-blend-mode:normal;fill:#eeeeee;fill-opacity:1;stroke-width:1.03448"
       id="path50"
       cx="379.66431"
       cy="567.69482"
       r="20.270271"
       inkscape:label="검정8" />
    <circle
       style="mix-blend-mode:normal;fill:#eeeeee;fill-opacity:1;stroke-width:0.982143"
       id="path51"
       cx="403.31293"
       cy="636.04626"
       r="37.162163"
       inkscape:label="검정9" />
    <circle
       style="mix-blend-mode:normal;fill:#eeeeee;fill-opacity:1"
       id="path52"
       cx="611.92108"
       cy="544.38403"
       r="38.175674"
       inkscape:label="검정9" />
    <circle
       style="mix-blend-mode:normal;fill:#eeeeee;fill-opacity:1"
       id="path53"
       cx="565.24536"
       cy="638.97864"
       r="46.959461"
       inkscape:label="검정10" />
    <ellipse
       style="mix-blend-mode:normal;fill:#eeeeee;fill-opacity:1;stroke-width:1.01922"
       id="path60"
       cx="339.1778"
       cy="381.51923"
       rx="97.972969"
       ry="98.986488"
       inkscape:label="검정11" />
    <circle
       style="fill:#90a882;fill-opacity:1;stroke-width:0.951219"
       id="path44"
       cx="237.17781"
       cy="288.72189"
       r="26.351353"
       inkscape:label="초록1" />
    <circle
       style="fill:#90a882;fill-opacity:1;stroke-width:1.09091"
       id="path54"
       cx="443.23184"
       cy="196.0192"
       r="44.594597"
       inkscape:label="초록2" />
    <circle
       style="fill:#90a882;fill-opacity:1;stroke-width:1.02339"
       id="path55"
       cx="668.56976"
       cy="446.35706"
       r="59.121624"
       inkscape:label="초록3" />
    <circle
       style="fill:#90a882;fill-opacity:1;stroke-width:0.960227"
       id="path56"
       cx="291.54266"
       cy="552.51917"
       r="57.094597"
       inkscape:label="초록나무1" />
    <rect
       style="fill:#90a882;fill-opacity:1"
       id="rect60"
       width="14.864865"
       height="58.108109"
       x="283.09671"
       y="605.50568"
       inkscape:label="초록나무1" />
    <circle
       style="fill:#90a882;fill-opacity:1;stroke-width:1.01523"
       id="path57"
       cx="476.4751"
       cy="533.96509"
       r="67.567566"
       inkscape:label="초록나무2" />
    <rect
       style="fill:#90a882;fill-opacity:1"
       id="rect59"
       width="15.540541"
       height="87.162163"
       x="468.88049"
       y="596.72192"
       inkscape:label="초록나무2" />
    <circle
       style="fill:#90a882;fill-opacity:1"
       id="path58"
       cx="558.31293"
       cy="309.07324"
       r="91.216217"
       inkscape:label="초록나무3" />
    <rect
       style="fill:#90a882;fill-opacity:1"
       id="rect58"
       width="16.216217"
       height="107.43243"
       x="551.31293"
       y="389.28946"
       inkscape:label="초록나무3" />
  </g>
</svg>
