<?xml version="1.0" encoding="UTF-8"?>
<!DOCTYPE svg PUBLIC "-//W3C//DTD SVG 1.1//EN" "http://www.w3.org/Graphics/SVG/1.1/DTD/svg11.dtd">
<svg xmlns="http://www.w3.org/2000/svg" version="1.1" width="3071px" height="1800px" style="shape-rendering:geometricPrecision; text-rendering:geometricPrecision; image-rendering:optimizeQuality; fill-rule:evenodd; clip-rule:evenodd" xmlns:xlink="http://www.w3.org/1999/xlink">
<g><path style="opacity:0.992" fill="#fe7a00" d="M 680.5,176.5 C 696.831,177.332 712.831,180.166 728.5,185C 798.796,206.317 863.796,237.984 923.5,280C 891.384,290.46 865.884,309.626 847,337.5C 831.19,367.203 828.19,398.203 838,430.5C 846.839,453.845 856.506,476.845 867,499.5C 892.303,580.391 865.47,635.891 786.5,666C 773.478,670.589 760.145,673.922 746.5,676C 733.464,680.075 725.63,675.575 723,662.5C 705.797,505.17 688.63,347.837 671.5,190.5C 671.526,183.752 674.526,179.086 680.5,176.5 Z"/></g>
<g><path style="opacity:0.99" fill="#e9002b" d="M 944.5,296.5 C 1004.98,341.477 1055.98,395.311 1097.5,458C 1220.26,464.699 1333.26,501.032 1436.5,567C 1359.63,612.61 1276.63,630.443 1187.5,620.5C 1137.12,619.377 1111.29,644.044 1110,694.5C 1109.44,725.64 1107.1,756.64 1103,787.5C 1100.33,805.829 1094.67,823.163 1086,839.5C 1085.31,840.357 1084.48,841.023 1083.5,841.5C 1065.57,791.62 1040.9,745.62 1009.5,703.5C 1038.2,623.906 1066.36,544.239 1094,464.5C 1040.5,530 987,595.5 933.5,661C 916.622,659.263 899.622,658.096 882.5,657.5C 867.838,658.506 853.171,659.006 838.5,659C 881.886,630.726 901.72,590.559 898,538.5C 896.149,519.764 891.483,501.764 884,484.5C 877.333,469.833 870.667,455.167 864,440.5C 842.279,375.11 863.112,328.943 926.5,302C 932.623,300.143 938.623,298.309 944.5,296.5 Z"/></g>
<g><path style="opacity:0.991" fill="#fe7a00" d="M 1456.5,580.5 C 1488.47,601.944 1517.97,626.61 1545,654.5C 1548.74,658.311 1551.74,662.644 1554,667.5C 1555.71,673.694 1554.21,678.86 1549.5,683C 1403.95,750.94 1258.29,818.607 1112.5,886C 1106.34,887.672 1101.51,885.838 1098,880.5C 1095.89,876.619 1094.06,872.619 1092.5,868.5C 1108.39,847.044 1118.55,823.044 1123,796.5C 1127.64,765.349 1129.98,734.016 1130,702.5C 1130.29,688.378 1133.62,675.045 1140,662.5C 1148.69,651.235 1160.19,644.735 1174.5,643C 1196.66,641.364 1218.83,641.53 1241,643.5C 1318.74,642.193 1390.57,621.193 1456.5,580.5 Z"/></g>
<g><path style="opacity:0.99" fill="#e9002b" d="M 348.5,779.5 C 393.749,778.65 437.415,786.484 479.5,803C 477.426,826.483 467.426,846.483 449.5,863C 436.934,870.819 423.268,873.819 408.5,872C 389.69,867.94 370.69,866.606 351.5,868C 332.174,869.559 319.34,879.392 313,897.5C 310.882,912.423 315.382,924.923 326.5,935C 333.487,940.494 340.82,945.494 348.5,950C 378.427,963.963 407.761,978.963 436.5,995C 498.969,1034.38 519.135,1089.55 497,1160.5C 480.163,1199 451.996,1225.5 412.5,1240C 372.779,1253.58 332.112,1257.25 290.5,1251C 252.699,1246.3 217.032,1234.97 183.5,1217C 181.619,1215.9 179.952,1214.56 178.5,1213C 192.865,1185.77 207.365,1158.6 222,1131.5C 257.498,1155.44 296.665,1166.61 339.5,1165C 355.238,1163.98 369.238,1158.65 381.5,1149C 396.269,1132.88 397.102,1116.04 384,1098.5C 372.49,1087 359.323,1077.83 344.5,1071C 318.572,1059.04 293.239,1046.04 268.5,1032C 207.063,993.912 186.897,940.079 208,870.5C 227.958,824.554 262.458,796.054 311.5,785C 323.872,782.415 336.205,780.582 348.5,779.5 Z"/></g>
<g><path style="opacity:0.992" fill="#e9002b" d="M 566.5,789.5 C 601.5,789.5 636.5,789.5 671.5,789.5C 671.333,851.834 671.5,914.168 672,976.5C 718.833,914.333 765.667,852.167 812.5,790C 855.167,789.333 897.833,789.333 940.5,790C 881.441,862.055 822.774,934.388 764.5,1007C 826.105,1086.28 888.105,1165.28 950.5,1244C 905.833,1244.67 861.167,1244.67 816.5,1244C 768.693,1178.69 720.693,1113.53 672.5,1048.5C 671.667,1088.83 671.167,1129.16 671,1169.5C 665.333,1213.83 640.5,1240 596.5,1248C 586.545,1249.3 576.545,1249.8 566.5,1249.5C 566.5,1096.17 566.5,942.833 566.5,789.5 Z"/></g>
<g><path style="opacity:0.983" fill="#fe7a00" d="M 2225.5,872.5 C 2245.5,872.5 2265.5,872.5 2285.5,872.5C 2285.5,881.167 2285.5,889.833 2285.5,898.5C 2314.5,898.5 2343.5,898.5 2372.5,898.5C 2372.5,911.833 2372.5,925.167 2372.5,938.5C 2356.83,938.333 2341.16,938.5 2325.5,939C 2357.26,962.294 2367.43,992.794 2356,1030.5C 2348.06,1049.11 2335.22,1063.28 2317.5,1073C 2307.45,1078.35 2296.95,1082.52 2286,1085.5C 2285.5,1092.16 2285.33,1098.83 2285.5,1105.5C 2320.17,1105.5 2354.83,1105.5 2389.5,1105.5C 2389.5,1118.83 2389.5,1132.17 2389.5,1145.5C 2300.83,1145.5 2212.17,1145.5 2123.5,1145.5C 2123.5,1132.17 2123.5,1118.83 2123.5,1105.5C 2157.5,1105.5 2191.5,1105.5 2225.5,1105.5C 2225.83,1098.8 2225.5,1092.13 2224.5,1085.5C 2193.62,1078.83 2170.46,1061.83 2155,1034.5C 2141.08,995.591 2150.58,963.757 2183.5,939C 2167.84,938.5 2152.17,938.333 2136.5,938.5C 2136.5,925.167 2136.5,911.833 2136.5,898.5C 2166.17,898.5 2195.83,898.5 2225.5,898.5C 2225.5,889.833 2225.5,881.167 2225.5,872.5 Z M 2253.5,953.5 C 2290.78,957.612 2306.94,978.279 2302,1015.5C 2294.51,1038.09 2278.84,1050.09 2255,1051.5C 2224.7,1049.03 2208.2,1032.69 2205.5,1002.5C 2208.1,972.902 2224.1,956.569 2253.5,953.5 Z"/></g>
<g><path style="opacity:0.985" fill="#fe7a00" d="M 1333.5,880.5 C 1436.83,880.5 1540.17,880.5 1643.5,880.5C 1643.5,893.5 1643.5,906.5 1643.5,919.5C 1609.5,919.333 1575.5,919.5 1541.5,920C 1579.71,969.59 1618.05,1019.09 1656.5,1068.5C 1637.51,1069.67 1618.51,1069.83 1599.5,1069C 1593.26,1068.04 1587.59,1065.71 1582.5,1062C 1577.08,1056.97 1572.24,1051.47 1568,1045.5C 1541.33,1010 1514.49,974.667 1487.5,939.5C 1454.83,982.5 1422.17,1025.5 1389.5,1068.5C 1366.17,1069.67 1342.84,1069.83 1319.5,1069C 1357.69,1019.64 1395.69,970.142 1433.5,920.5C 1400.17,919.5 1366.84,919.167 1333.5,919.5C 1333.5,906.5 1333.5,893.5 1333.5,880.5 Z"/></g>
<g><path style="opacity:0.979" fill="#fe7a00" d="M 1813.5,880.5 C 1831.41,880.174 1849.24,880.508 1867,881.5C 1900.37,944.413 1933.87,1007.25 1967.5,1070C 1951.83,1070.67 1936.17,1070.67 1920.5,1070C 1914.07,1068.37 1908.9,1064.87 1905,1059.5C 1882.08,1017.33 1859.41,974.992 1837,932.5C 1812.41,978.008 1788.08,1023.67 1764,1069.5C 1744.58,1070.49 1725.08,1070.83 1705.5,1070.5C 1706.09,1067.31 1707.26,1064.31 1709,1061.5C 1739.75,1003.67 1770.75,946.007 1802,888.5C 1805.46,885.195 1809.3,882.528 1813.5,880.5 Z"/></g>
<g><path style="opacity:0.989" fill="#fe7a00" d="M 1992.5,880.5 C 2011.17,880.5 2029.83,880.5 2048.5,880.5C 2048.5,949.833 2048.5,1019.17 2048.5,1088.5C 2029.83,1088.5 2011.17,1088.5 1992.5,1088.5C 1992.5,1019.17 1992.5,949.833 1992.5,880.5 Z"/></g>
<g><path style="opacity:0.977" fill="#fe7a00" d="M 2405.5,880.5 C 2424.5,880.5 2443.5,880.5 2462.5,880.5C 2462.67,990.167 2462.5,1099.83 2462,1209.5C 2458.46,1226.7 2448.29,1237.87 2431.5,1243C 2422.89,1244.3 2414.22,1244.8 2405.5,1244.5C 2405.5,1123.17 2405.5,1001.83 2405.5,880.5 Z"/></g>
<g><path style="opacity:0.98" fill="#fe7a00" d="M 2622.5,880.5 C 2640.17,880.5 2657.83,880.5 2675.5,880.5C 2708.83,966.833 2742.17,1053.17 2775.5,1139.5C 2760.5,1139.67 2745.5,1139.5 2730.5,1139C 2719.54,1136.71 2712.38,1130.21 2709,1119.5C 2687.86,1061.09 2666.53,1002.76 2645,944.5C 2620.67,1009.17 2596.33,1073.83 2572,1138.5C 2552.58,1139.49 2533.08,1139.83 2513.5,1139.5C 2544.15,1056.53 2575.65,973.867 2608,891.5C 2611.91,886.404 2616.74,882.738 2622.5,880.5 Z"/></g>
<g><path style="opacity:0.977" fill="#fe7a00" d="M 2790.5,880.5 C 2809.5,880.5 2828.5,880.5 2847.5,880.5C 2847.5,912.167 2847.5,943.833 2847.5,975.5C 2862.17,975.5 2876.83,975.5 2891.5,975.5C 2891.5,988.833 2891.5,1002.17 2891.5,1015.5C 2876.83,1015.5 2862.17,1015.5 2847.5,1015.5C 2847.98,1081.87 2847.48,1148.2 2846,1214.5C 2841.07,1229.1 2831.24,1238.6 2816.5,1243C 2807.89,1244.3 2799.22,1244.8 2790.5,1244.5C 2790.5,1123.17 2790.5,1001.83 2790.5,880.5 Z"/></g>
<g><path style="opacity:0.976" fill="#fe7a00" d="M 1302.5,1103.5 C 1426.17,1103.5 1549.83,1103.5 1673.5,1103.5C 1673.5,1116.83 1673.5,1130.17 1673.5,1143.5C 1621.17,1143.5 1568.83,1143.5 1516.5,1143.5C 1516.67,1170.5 1516.5,1197.5 1516,1224.5C 1513.2,1244.97 1501.7,1257.47 1481.5,1262C 1474.17,1262.5 1466.84,1262.67 1459.5,1262.5C 1459.5,1222.83 1459.5,1183.17 1459.5,1143.5C 1407.17,1143.5 1354.83,1143.5 1302.5,1143.5C 1302.5,1130.17 1302.5,1116.83 1302.5,1103.5 Z"/></g>
<g><path style="opacity:0.979" fill="#fe7a00" d="M 1765.5,1105.5 C 1859.83,1105.5 1954.17,1105.5 2048.5,1105.5C 2048.67,1144.17 2048.5,1182.83 2048,1221.5C 2043.72,1240.78 2031.89,1252.28 2012.5,1256C 2005.84,1256.5 1999.17,1256.67 1992.5,1256.5C 1992.5,1219.5 1992.5,1182.5 1992.5,1145.5C 1916.83,1145.5 1841.17,1145.5 1765.5,1145.5C 1765.5,1132.17 1765.5,1118.83 1765.5,1105.5 Z"/></g>
<g><path style="opacity:0.977" fill="#fe7a00" d="M 1394.5,1377.5 C 1406.08,1377.18 1417.58,1377.51 1429,1378.5C 1461.33,1458.67 1493.17,1539 1524.5,1619.5C 1508.83,1619.67 1493.16,1619.5 1477.5,1619C 1469.64,1599.75 1461.97,1580.41 1454.5,1561C 1426.17,1560.33 1397.83,1560.33 1369.5,1561C 1364,1575.48 1358.5,1589.98 1353,1604.5C 1345.39,1615.39 1334.89,1621.23 1321.5,1622C 1315.44,1622.74 1309.44,1622.41 1303.5,1621C 1302.57,1620.61 1301.91,1619.95 1301.5,1619C 1332.21,1538.35 1363.21,1457.85 1394.5,1377.5 Z M 1411.5,1440.5 C 1421.53,1467.58 1431.2,1494.92 1440.5,1522.5C 1421.18,1523.67 1401.84,1523.83 1382.5,1523C 1392.86,1495.75 1402.53,1468.25 1411.5,1440.5 Z"/></g>
<g><path style="opacity:0.974" fill="#fe7a00" d="M 1588.5,1377.5 C 1600.85,1376.89 1611.02,1381.22 1619,1390.5C 1635.6,1418.1 1652.6,1445.43 1670,1472.5C 1690.29,1442.09 1710.46,1411.59 1730.5,1381C 1748.18,1380.17 1765.84,1380.33 1783.5,1381.5C 1756.87,1421.26 1729.87,1460.76 1702.5,1500C 1729.08,1540.34 1754.75,1581.18 1779.5,1622.5C 1761.83,1622.67 1744.16,1622.5 1726.5,1622C 1706.54,1590.58 1686.71,1559.08 1667,1527.5C 1645.96,1559.09 1624.79,1590.59 1603.5,1622C 1585.82,1622.83 1568.16,1622.67 1550.5,1621.5C 1578.97,1581.19 1607.64,1541.03 1636.5,1501C 1611.58,1463.15 1586.91,1425.15 1562.5,1387C 1570.53,1382 1579.19,1378.83 1588.5,1377.5 Z"/></g>
</svg>
